<?xml version="1.0" encoding="UTF-8" standalone="no"?>
<svg
   xmlns:dc="http://purl.org/dc/elements/1.1/"
   xmlns:cc="http://creativecommons.org/ns#"
   xmlns:rdf="http://www.w3.org/1999/02/22-rdf-syntax-ns#"
   xmlns:svg="http://www.w3.org/2000/svg"
   xmlns="http://www.w3.org/2000/svg"
   xmlns:sodipodi="http://sodipodi.sourceforge.net/DTD/sodipodi-0.dtd"
   xmlns:inkscape="http://www.inkscape.org/namespaces/inkscape"
   viewBox="0 0 48 48"
   id="svg2"
   version="1.1"
   inkscape:version="0.91 r13725"
   sodipodi:docname="AdobePremierePro.svg">
  <metadata
     id="metadata69">
    <rdf:RDF>
      <cc:Work
         rdf:about="">
        <dc:format>image/svg+xml</dc:format>
        <dc:type
           rdf:resource="http://purl.org/dc/dcmitype/StillImage" />
      </cc:Work>
    </rdf:RDF>
  </metadata>
  <sodipodi:namedview
     pagecolor="#ffffff"
     bordercolor="#666666"
     borderopacity="1"
     objecttolerance="10"
     gridtolerance="10"
     guidetolerance="10"
     inkscape:pageopacity="0"
     inkscape:pageshadow="2"
     inkscape:window-width="767"
     inkscape:window-height="480"
     id="namedview67"
     showgrid="false"
     inkscape:zoom="4.9166667"
     inkscape:cx="-3.7627119"
     inkscape:cy="24"
     inkscape:window-x="57"
     inkscape:window-y="31"
     inkscape:window-maximized="0"
     inkscape:current-layer="svg2" />
  <defs
     id="defs4">
    <linearGradient
       id="linearGradient3764"
       x1="1"
       x2="47"
       gradientUnits="userSpaceOnUse"
       gradientTransform="matrix(0,-1,1,0,-1.5e-6,47.999998)">
      <stop
         style="stop-color:#553c64;stop-opacity:1"
         id="stop7" />
      <stop
         offset="1"
         style="stop-color:#5f4371;stop-opacity:1"
         id="stop9" />
    </linearGradient>
  </defs>
  <g
     id="g11">
    <path
       d="m 36.31 5 c 5.859 4.062 9.688 10.831 9.688 18.5 c 0 12.426 -10.07 22.5 -22.5 22.5 c -7.669 0 -14.438 -3.828 -18.5 -9.688 c 1.037 1.822 2.306 3.499 3.781 4.969 c 4.085 3.712 9.514 5.969 15.469 5.969 c 12.703 0 23 -10.298 23 -23 c 0 -5.954 -2.256 -11.384 -5.969 -15.469 c -1.469 -1.475 -3.147 -2.744 -4.969 -3.781 z m 4.969 3.781 c 3.854 4.113 6.219 9.637 6.219 15.719 c 0 12.703 -10.297 23 -23 23 c -6.081 0 -11.606 -2.364 -15.719 -6.219 c 4.16 4.144 9.883 6.719 16.219 6.719 c 12.703 0 23 -10.298 23 -23 c 0 -6.335 -2.575 -12.06 -6.719 -16.219 z"
       style="opacity:0.05"
       id="path13" />
    <path
       d="m 41.28 8.781 c 3.712 4.085 5.969 9.514 5.969 15.469 c 0 12.703 -10.297 23 -23 23 c -5.954 0 -11.384 -2.256 -15.469 -5.969 c 4.113 3.854 9.637 6.219 15.719 6.219 c 12.703 0 23 -10.298 23 -23 c 0 -6.081 -2.364 -11.606 -6.219 -15.719 z"
       style="opacity:0.1"
       id="path15" />
    <path
       d="m 31.25 2.375 c 8.615 3.154 14.75 11.417 14.75 21.13 c 0 12.426 -10.07 22.5 -22.5 22.5 c -9.708 0 -17.971 -6.135 -21.12 -14.75 a 23 23 0 0 0 44.875 -7 a 23 23 0 0 0 -16 -21.875 z"
       style="opacity:0.2"
       id="path17" />
  </g>
  <g
     id="g19"
     style="fill:#e6e6e6;fill-opacity:1">
    <path
       d="m 24 1 c 12.703 0 23 10.297 23 23 c 0 12.703 -10.297 23 -23 23 -12.703 0 -23 -10.297 -23 -23 0 -12.703 10.297 -23 23 -23 z"
       style="fill:#e6e6e6;fill-opacity:1"
       id="path21" />
  </g>
  <g
     id="g23">
    <g
       id="g25">
      <g
         transform="translate(1,1)"
         id="g27">
        <g
           style="opacity:0.1"
           id="g29">
          <!-- color: #5f4371 -->
          <g
             id="g31">
            <g
               id="g33">
              <g
                 id="g35">
                <path
                   d="m 16 16.309 l 0 14.691 l 2.695 0 l 0 -5.609 c 0.355 0.066 0.816 0.09 1.324 0.09 c 1.922 0 3.625 -0.508 4.707 -1.594 c 0.84 -0.793 1.281 -1.965 1.281 -3.379 c 0 -1.391 -0.574 -2.563 -1.461 -3.289 c -0.949 -0.797 -2.406 -1.219 -4.395 -1.219 c -1.832 0 -3.18 0.133 -4.152 0.313 m 2.695 6.938 l 0 -5.04 c 0.289 -0.066 0.816 -0.133 1.57 -0.133 c 1.875 0 3.03 0.883 3.03 2.543 c 0 1.742 -1.238 2.738 -3.27 2.738 c -0.555 0 -0.996 -0.023 -1.328 -0.109"
                   style="fill:#000;fill-opacity:1;stroke:none;fill-rule:nonzero"
                   id="path37" />
              </g>
            </g>
            <g
               id="g39">
              <g
                 id="g41">
                <path
                   d="m 30.426 22.297 l -0.09 0 l -0.086 -2.055 l -2.363 0 c 0.066 0.973 0.086 2.01 0.086 3.469 l 0 7.289 l 2.719 0 l 0 -5.566 c 0 -0.309 0.043 -0.594 0.086 -0.84 c 0.246 -1.215 1.129 -2.055 2.43 -2.055 c 0.332 0 0.578 0.047 0.797 0.09 l 0 -2.563 c -0.219 -0.043 -0.375 -0.066 -0.641 -0.066 c -1.148 0 -2.406 0.773 -2.938 2.297"
                   style="fill:#000;fill-opacity:1;stroke:none;fill-rule:nonzero"
                   id="path43" />
              </g>
            </g>
          </g>
        </g>
      </g>
    </g>
  </g>
  <g
     id="g45">
    <g
       id="g47">
      <!-- color: #5f4371 -->
      <g
         id="g49">
        <g
           id="g51">
          <g
             id="g53">
            <path
               d="m 16 16.309 l 0 14.691 l 2.695 0 l 0 -5.609 c 0.355 0.066 0.816 0.09 1.324 0.09 c 1.922 0 3.625 -0.508 4.707 -1.594 c 0.84 -0.793 1.281 -1.965 1.281 -3.379 c 0 -1.391 -0.574 -2.563 -1.461 -3.289 c -0.949 -0.797 -2.406 -1.219 -4.395 -1.219 c -1.832 0 -3.18 0.133 -4.152 0.313 m 2.695 6.938 l 0 -5.04 c 0.289 -0.066 0.816 -0.133 1.57 -0.133 c 1.875 0 3.03 0.883 3.03 2.543 c 0 1.742 -1.238 2.738 -3.27 2.738 c -0.555 0 -0.996 -0.023 -1.328 -0.109"
               style="fill:#d77cfb;fill-opacity:1;stroke:none;fill-rule:nonzero"
               id="path55" />
          </g>
        </g>
        <g
           id="g57">
          <g
             id="g59">
            <path
               d="m 30.426 22.297 l -0.09 0 l -0.086 -2.055 l -2.363 0 c 0.066 0.973 0.086 2.01 0.086 3.469 l 0 7.289 l 2.719 0 l 0 -5.566 c 0 -0.309 0.043 -0.594 0.086 -0.84 c 0.246 -1.215 1.129 -2.055 2.43 -2.055 c 0.332 0 0.578 0.047 0.797 0.09 l 0 -2.563 c -0.219 -0.043 -0.375 -0.066 -0.641 -0.066 c -1.148 0 -2.406 0.773 -2.938 2.297"
               style="fill:#d77cfb;fill-opacity:1;stroke:none;fill-rule:nonzero"
               id="path61" />
          </g>
        </g>
      </g>
    </g>
  </g>
  <g
     id="g63">
    <path
       d="m 40.03 7.531 c 3.712 4.084 5.969 9.514 5.969 15.469 0 12.703 -10.297 23 -23 23 c -5.954 0 -11.384 -2.256 -15.469 -5.969 4.178 4.291 10.01 6.969 16.469 6.969 c 12.703 0 23 -10.298 23 -23 0 -6.462 -2.677 -12.291 -6.969 -16.469 z"
       style="opacity:0.1"
       id="path65" />
  </g>
</svg>
