<?xml version="1.0" encoding="UTF-8" standalone="no"?>
<svg
   xmlns:dc="http://purl.org/dc/elements/1.1/"
   xmlns:cc="http://creativecommons.org/ns#"
   xmlns:rdf="http://www.w3.org/1999/02/22-rdf-syntax-ns#"
   xmlns:svg="http://www.w3.org/2000/svg"
   xmlns="http://www.w3.org/2000/svg"
   xmlns:sodipodi="http://sodipodi.sourceforge.net/DTD/sodipodi-0.dtd"
   xmlns:inkscape="http://www.inkscape.org/namespaces/inkscape"
   viewBox="0 0 48 48"
   id="svg2"
   version="1.1"
   inkscape:version="0.91 r13725"
   sodipodi:docname="AdobeFirework.svg">
  <metadata
     id="metadata65">
    <rdf:RDF>
      <cc:Work
         rdf:about="">
        <dc:format>image/svg+xml</dc:format>
        <dc:type
           rdf:resource="http://purl.org/dc/dcmitype/StillImage" />
      </cc:Work>
    </rdf:RDF>
  </metadata>
  <sodipodi:namedview
     pagecolor="#ffffff"
     bordercolor="#666666"
     borderopacity="1"
     objecttolerance="10"
     gridtolerance="10"
     guidetolerance="10"
     inkscape:pageopacity="0"
     inkscape:pageshadow="2"
     inkscape:window-width="1863"
     inkscape:window-height="1021"
     id="namedview63"
     showgrid="false"
     inkscape:zoom="4.9166667"
     inkscape:cx="-13.016949"
     inkscape:cy="24"
     inkscape:window-x="57"
     inkscape:window-y="31"
     inkscape:window-maximized="1"
     inkscape:current-layer="svg2" />
  <defs
     id="defs4">
    <linearGradient
       id="linearGradient3764"
       x1="1"
       x2="47"
       gradientUnits="userSpaceOnUse"
       gradientTransform="matrix(0,-1,1,0,-1.5e-6,47.999998)">
      <stop
         style="stop-color:#53532d;stop-opacity:1"
         id="stop7" />
      <stop
         offset="1"
         style="stop-color:#606034;stop-opacity:1"
         id="stop9" />
    </linearGradient>
  </defs>
  <g
     id="g11">
    <path
       d="m 36.31 5 c 5.859 4.062 9.688 10.831 9.688 18.5 c 0 12.426 -10.07 22.5 -22.5 22.5 c -7.669 0 -14.438 -3.828 -18.5 -9.688 c 1.037 1.822 2.306 3.499 3.781 4.969 c 4.085 3.712 9.514 5.969 15.469 5.969 c 12.703 0 23 -10.298 23 -23 c 0 -5.954 -2.256 -11.384 -5.969 -15.469 c -1.469 -1.475 -3.147 -2.744 -4.969 -3.781 z m 4.969 3.781 c 3.854 4.113 6.219 9.637 6.219 15.719 c 0 12.703 -10.297 23 -23 23 c -6.081 0 -11.606 -2.364 -15.719 -6.219 c 4.16 4.144 9.883 6.719 16.219 6.719 c 12.703 0 23 -10.298 23 -23 c 0 -6.335 -2.575 -12.06 -6.719 -16.219 z"
       style="opacity:0.05"
       id="path13" />
    <path
       d="m 41.28 8.781 c 3.712 4.085 5.969 9.514 5.969 15.469 c 0 12.703 -10.297 23 -23 23 c -5.954 0 -11.384 -2.256 -15.469 -5.969 c 4.113 3.854 9.637 6.219 15.719 6.219 c 12.703 0 23 -10.298 23 -23 c 0 -6.081 -2.364 -11.606 -6.219 -15.719 z"
       style="opacity:0.1"
       id="path15" />
    <path
       d="m 31.25 2.375 c 8.615 3.154 14.75 11.417 14.75 21.13 c 0 12.426 -10.07 22.5 -22.5 22.5 c -9.708 0 -17.971 -6.135 -21.12 -14.75 a 23 23 0 0 0 44.875 -7 a 23 23 0 0 0 -16 -21.875 z"
       style="opacity:0.2"
       id="path17" />
  </g>
  <g
     id="g19"
     style="fill:#e6e6e6;fill-opacity:1">
    <path
       d="m 24 1 c 12.703 0 23 10.297 23 23 c 0 12.703 -10.297 23 -23 23 -12.703 0 -23 -10.297 -23 -23 0 -12.703 10.297 -23 23 -23 z"
       style="fill:#e6e6e6;fill-opacity:1"
       id="path21" />
  </g>
  <g
     id="g23"
     style="stroke:none;fill:#ffff00;fill-opacity:0.67605633">
    <g
       id="g25"
       style="stroke:none;fill:#ffff00;fill-opacity:0.67605633">
      <g
         transform="translate(1,1)"
         id="g27"
         style="stroke:none;fill:#ffff00;fill-opacity:0.67605633">
        <g
           style="opacity:0.1;stroke:none;fill:#ffff00;fill-opacity:0.67605633"
           id="g29">
          <!-- color: #606034 -->
          <g
             id="g31"
             style="stroke:none;fill:#ffff00;fill-opacity:0.67605633">
            <g
               id="g33"
               style="stroke:none;fill:#ffff00;fill-opacity:0.67605633">
              <path
                 d="m 13 16 l 0 15 l 2.738 0 l 0 -6.363 l 5.52 0 l 0 -2.25 l -5.52 0 l 0 -4.137 l 5.922 0 l 0 -2.25 m -8.66 0"
                 style="fill:#ffff00;fill-opacity:0.67605633;stroke:none;fill-rule:nonzero"
                 id="path35" />
            </g>
            <g
               id="g37"
               style="stroke:none;fill:#ffff00;fill-opacity:0.67605633">
              <g
                 id="g39"
                 style="stroke:none;fill:#ffff00;fill-opacity:0.67605633">
                <path
                   d="m 34.383 20.16 l -1.113 4.805 c -0.266 1.27 -0.492 2.449 -0.656 3.629 l -0.043 0 c -0.227 -1.18 -0.492 -2.359 -0.805 -3.629 l -1.254 -4.805 l -2.063 0 l -1.297 4.941 c -0.289 1.113 -0.621 2.313 -0.828 3.492 l -0.039 0 c -0.188 -1.18 -0.414 -2.359 -0.641 -3.516 l -1.051 -4.918 l -2.594 0 l 2.965 10.836 l 2.371 0 l 1.277 -4.406 c 0.289 -1.066 0.555 -2.137 0.762 -3.473 l 0.043 0 c 0.227 1.313 0.453 2.336 0.762 3.473 l 1.195 4.406 l 2.348 0 l 3.156 -10.836 m -2.496 0"
                   style="fill:#ffff00;fill-opacity:0.67605633;stroke:none;fill-rule:nonzero"
                   id="path41" />
              </g>
            </g>
          </g>
        </g>
      </g>
    </g>
  </g>
  <g
     id="g43"
     style="stroke:#000000;stroke-opacity:0.04225352;fill:#ffff00;fill-opacity:0.67605633"
     transform="matrix(1.0015781,0,0,0.89263534,-0.03934044,3.36347)">
    <g
       id="g45"
       style="stroke:#000000;stroke-opacity:0.04225352;fill:#ffff00;fill-opacity:0.67605633">
      <!-- color: #606034 -->
      <g
         id="g47"
         style="stroke:#000000;stroke-opacity:0.04225352;fill:#ffff00;fill-opacity:0.67605633">
        <g
           id="g49"
           style="stroke:#000000;stroke-opacity:0.04225352;fill:#ffff00;fill-opacity:0.67605633">
          <path
             d="m 13,16 0,15 2.738,0 0,-6.363 5.52,0 0,-2.25 -5.52,0 0,-4.137 5.922,0 0,-2.25 M 13,16"
             style="fill:#ffff00;fill-opacity:0.67605633;fill-rule:nonzero;stroke:#000000;stroke-opacity:0.04225352"
             id="path51"
             inkscape:connector-curvature="0" />
        </g>
        <g
           id="g53"
           style="stroke:#000000;stroke-opacity:0.04225352;fill:#ffff00;fill-opacity:0.67605633">
          <g
             id="g55"
             style="stroke:#000000;stroke-opacity:0.04225352;fill:#ffff00;fill-opacity:0.67605633">
            <path
               d="m 34.383,20.16 -1.113,4.805 c -0.266,1.27 -0.492,2.449 -0.656,3.629 l -0.043,0 c -0.227,-1.18 -0.492,-2.359 -0.805,-3.629 l -1.254,-4.805 -2.063,0 -1.297,4.941 c -0.289,1.113 -0.621,2.313 -0.828,3.492 l -0.039,0 c -0.188,-1.18 -0.414,-2.359 -0.641,-3.516 l -1.051,-4.918 -2.594,0 2.965,10.836 2.371,0 1.277,-4.406 c 0.289,-1.066 0.555,-2.137 0.762,-3.473 l 0.043,0 c 0.227,1.313 0.453,2.336 0.762,3.473 l 1.195,4.406 2.348,0 3.156,-10.836 m -2.496,0"
               style="fill:#ffff00;fill-opacity:0.67605633;fill-rule:nonzero;stroke:#000000;stroke-opacity:0.04225352"
               id="path57"
               inkscape:connector-curvature="0" />
          </g>
        </g>
      </g>
    </g>
  </g>
  <g
     id="g59">
    <path
       d="m 40.03 7.531 c 3.712 4.084 5.969 9.514 5.969 15.469 0 12.703 -10.297 23 -23 23 c -5.954 0 -11.384 -2.256 -15.469 -5.969 4.178 4.291 10.01 6.969 16.469 6.969 c 12.703 0 23 -10.298 23 -23 0 -6.462 -2.677 -12.291 -6.969 -16.469 z"
       style="opacity:0.1"
       id="path61" />
  </g>
</svg>
