<?xml version="1.0" encoding="UTF-8" standalone="no"?>
<svg
   xmlns:dc="http://purl.org/dc/elements/1.1/"
   xmlns:cc="http://creativecommons.org/ns#"
   xmlns:rdf="http://www.w3.org/1999/02/22-rdf-syntax-ns#"
   xmlns:svg="http://www.w3.org/2000/svg"
   xmlns="http://www.w3.org/2000/svg"
   xmlns:sodipodi="http://sodipodi.sourceforge.net/DTD/sodipodi-0.dtd"
   xmlns:inkscape="http://www.inkscape.org/namespaces/inkscape"
   viewBox="0 0 48 48"
   id="svg2"
   version="1.1"
   inkscape:version="0.91 r13725"
   sodipodi:docname="aquemu.svg">
  <metadata
     id="metadata35">
    <rdf:RDF>
      <cc:Work
         rdf:about="">
        <dc:format>image/svg+xml</dc:format>
        <dc:type
           rdf:resource="http://purl.org/dc/dcmitype/StillImage" />
      </cc:Work>
    </rdf:RDF>
  </metadata>
  <sodipodi:namedview
     pagecolor="#ffffff"
     bordercolor="#666666"
     borderopacity="1"
     objecttolerance="10"
     gridtolerance="10"
     guidetolerance="10"
     inkscape:pageopacity="0"
     inkscape:pageshadow="2"
     inkscape:window-width="789"
     inkscape:window-height="480"
     id="namedview33"
     showgrid="false"
     inkscape:zoom="4.9166667"
     inkscape:cx="24"
     inkscape:cy="24"
     inkscape:window-x="57"
     inkscape:window-y="31"
     inkscape:window-maximized="0"
     inkscape:current-layer="svg2" />
  <defs
     id="defs4">
    <linearGradient
       id="linearGradient3898"
       y1="47"
       x2="0"
       y2="1"
       gradientUnits="userSpaceOnUse">
      <stop
         style="stop-color:#1f56a9;stop-opacity:1"
         id="stop7" />
      <stop
         offset="1"
         style="stop-color:#225fba;stop-opacity:1"
         id="stop9" />
    </linearGradient>
  </defs>
  <g
     id="g11">
    <path
       d="m 36.31 5 c 5.859 4.062 9.688 10.831 9.688 18.5 c 0 12.426 -10.07 22.5 -22.5 22.5 c -7.669 0 -14.438 -3.828 -18.5 -9.688 c 1.037 1.822 2.306 3.499 3.781 4.969 c 4.085 3.712 9.514 5.969 15.469 5.969 c 12.703 0 23 -10.298 23 -23 c 0 -5.954 -2.256 -11.384 -5.969 -15.469 c -1.469 -1.475 -3.147 -2.744 -4.969 -3.781 z m 4.969 3.781 c 3.854 4.113 6.219 9.637 6.219 15.719 c 0 12.703 -10.297 23 -23 23 c -6.081 0 -11.606 -2.364 -15.719 -6.219 c 4.16 4.144 9.883 6.719 16.219 6.719 c 12.703 0 23 -10.298 23 -23 c 0 -6.335 -2.575 -12.06 -6.719 -16.219 z"
       style="opacity:0.05"
       id="path13" />
    <path
       d="m 41.28 8.781 c 3.712 4.085 5.969 9.514 5.969 15.469 c 0 12.703 -10.297 23 -23 23 c -5.954 0 -11.384 -2.256 -15.469 -5.969 c 4.113 3.854 9.637 6.219 15.719 6.219 c 12.703 0 23 -10.298 23 -23 c 0 -6.081 -2.364 -11.606 -6.219 -15.719 z"
       style="opacity:0.1"
       id="path15" />
    <path
       d="m 31.25 2.375 c 8.615 3.154 14.75 11.417 14.75 21.13 c 0 12.426 -10.07 22.5 -22.5 22.5 c -9.708 0 -17.971 -6.135 -21.12 -14.75 a 23 23 0 0 0 44.875 -7 a 23 23 0 0 0 -16 -21.875 z"
       style="opacity:0.2"
       id="path17" />
  </g>
  <g
     id="g19"
     style="fill:#e6e6e6;fill-opacity:1">
    <path
       d="m 24 1 c 12.703 0 23 10.297 23 23 c 0 12.703 -10.297 23 -23 23 -12.703 0 -23 -10.297 -23 -23 0 -12.703 10.297 -23 23 -23 z"
       style="fill:#e6e6e6;fill-opacity:1"
       id="path21" />
  </g>
  <g
     id="g23">
    <path
       d="m 40.03 7.531 c 3.712 4.084 5.969 9.514 5.969 15.469 0 12.703 -10.297 23 -23 23 c -5.954 0 -11.384 -2.256 -15.469 -5.969 4.178 4.291 10.01 6.969 16.469 6.969 c 12.703 0 23 -10.298 23 -23 0 -6.462 -2.677 -12.291 -6.969 -16.469 z"
       style="opacity:0.1"
       id="path25" />
  </g>
  <g
     id="g27">
    <path
       d="m 25 12 c -7.18 0 -13 5.82 -13 13 0 7.18 5.82 13 13 13 3.181 0 6.116 -1.134 8.375 -3.03 l 3.03 3.03 1.594 -1.594 -3.03 -3.03 c 1.898 -2.259 3.03 -5.194 3.03 -8.375 0 -7.18 -5.82 -13 -13 -13 z m 0 2 c 5.833 0 10.597 4.542 10.969 10.281 l -17.563 -8.06 c 1.84 -1.384 4.114 -2.219 6.594 -2.219 z m -8.813 4.438 8.03 17.531 c -5.709 -0.402 -10.219 -5.157 -10.219 -10.969 c 0 -2.463 0.82 -4.729 2.188 -6.563 z m 2.875 0.656 9.719 4.594 -5.125 5.094 -4.594 -9.688 z m 11.906 5.594 4.844 2.375 c -0.346 1.827 -1.151 3.489 -2.281 4.875 l -1.906 -1.906 -1.594 1.594 1.906 1.906 c -1.394 1.133 -3.07 1.938 -4.906 2.281 l -2.344 -4.844 6.281 -6.281 z"
       style="fill:#000;fill-opacity:0.118;stroke:none;fill-rule:nonzero"
       id="path29" />
    <path
       d="m 24 11 c -7.18 0 -13 5.82 -13 13 c 0 7.18 5.82 13 13 13 c 3.181 0 6.116 -1.134 8.375 -3.03 l 3.03 3.03 l 1.594 -1.594 l -3.03 -3.03 c 1.898 -2.259 3.03 -5.194 3.03 -8.375 c 0 -7.18 -5.82 -13 -13 -13 z m 0 2 c 5.833 0 10.597 4.542 10.969 10.281 l -17.563 -8.06 c 1.84 -1.384 4.114 -2.219 6.594 -2.219 z m -8.813 4.438 l 8.03 17.531 c -5.709 -0.402 -10.219 -5.157 -10.219 -10.969 c 0 -2.463 0.82 -4.729 2.188 -6.563 z m 2.875 0.656 l 9.719 4.594 l -5.125 5.094 l -4.594 -9.688 z m 11.906 5.594 l 4.844 2.375 c -0.346 1.827 -1.151 3.489 -2.281 4.875 l -1.906 -1.906 l -1.594 1.594 l 1.906 1.906 c -1.394 1.133 -3.07 1.938 -4.906 2.281 l -2.344 -4.844 l 6.281 -6.281 z"
       style="fill:#93c2e9;fill-opacity:1;stroke:none;fill-rule:nonzero"
       id="path31" />
  </g>
</svg>
