<?xml version="1.0" encoding="UTF-8" standalone="no"?>
<svg
   xmlns:dc="http://purl.org/dc/elements/1.1/"
   xmlns:cc="http://creativecommons.org/ns#"
   xmlns:rdf="http://www.w3.org/1999/02/22-rdf-syntax-ns#"
   xmlns:svg="http://www.w3.org/2000/svg"
   xmlns="http://www.w3.org/2000/svg"
   xmlns:sodipodi="http://sodipodi.sourceforge.net/DTD/sodipodi-0.dtd"
   xmlns:inkscape="http://www.inkscape.org/namespaces/inkscape"
   viewBox="0 0 48 48"
   id="svg2"
   version="1.1"
   inkscape:version="0.91 r13725"
   sodipodi:docname="calligrakrita.svg">
  <metadata
     id="metadata43">
    <rdf:RDF>
      <cc:Work
         rdf:about="">
        <dc:format>image/svg+xml</dc:format>
        <dc:type
           rdf:resource="http://purl.org/dc/dcmitype/StillImage" />
      </cc:Work>
    </rdf:RDF>
  </metadata>
  <sodipodi:namedview
     pagecolor="#ffffff"
     bordercolor="#666666"
     borderopacity="1"
     objecttolerance="10"
     gridtolerance="10"
     guidetolerance="10"
     inkscape:pageopacity="0"
     inkscape:pageshadow="2"
     inkscape:window-width="789"
     inkscape:window-height="480"
     id="namedview41"
     showgrid="false"
     inkscape:zoom="4.9166667"
     inkscape:cx="24"
     inkscape:cy="24"
     inkscape:window-x="57"
     inkscape:window-y="31"
     inkscape:window-maximized="0"
     inkscape:current-layer="svg2" />
  <defs
     id="defs4">
    <linearGradient
       id="linearGradient3109"
       gradientUnits="userSpaceOnUse"
       gradientTransform="matrix(0.770699,0,0,0.742855,51.992744,9.374421)"
       x1="-22.764"
       y1="59.63"
       x2="-40.638"
       y2="18.26">
      <stop
         style="stop-color:#868ecf;stop-opacity:1"
         id="stop7" />
      <stop
         offset="1"
         style="stop-color:#2f5fcd;stop-opacity:0"
         id="stop9" />
    </linearGradient>
    <linearGradient
       id="linearGradient3902"
       x1="48.32"
       y1="48"
       x2="20"
       y2="18"
       gradientUnits="userSpaceOnUse">
      <stop
         style="stop-color:#dbe34a;stop-opacity:1"
         id="stop12" />
      <stop
         offset="1"
         style="stop-color:#8edbce;stop-opacity:0"
         id="stop14" />
    </linearGradient>
    <linearGradient
       id="linearGradient3919"
       x1="0"
       x2="48"
       gradientUnits="userSpaceOnUse"
       gradientTransform="matrix(0,1,-1,0,48,0)">
      <stop
         style="stop-color:#c862c0;stop-opacity:1"
         id="stop17" />
      <stop
         offset="1"
         style="stop-color:#8edbce;stop-opacity:1"
         id="stop19" />
    </linearGradient>
    <linearGradient
       id="linearGradient3109-3"
       gradientUnits="userSpaceOnUse"
       gradientTransform="matrix(0.770699,0,0,0.742855,48.563879,14.665029)"
       x1="-22.764"
       y1="59.630001"
       x2="-40.638"
       y2="18.26">
      <stop
         style="stop-color:#868ecf;stop-opacity:1"
         id="stop7-6" />
      <stop
         offset="1"
         style="stop-color:#2f5fcd;stop-opacity:0"
         id="stop9-7" />
    </linearGradient>
  </defs>
  <path
     d="m 24 1 c -12.703 0 -23 10.297 -23 23 c 0 12.703 10.297 23 23 23 c 12.703 0 23 -10.297 23 -23 c 0 -12.703 -10.297 -23 -23 -23 z"
     style="fill:url(#linearGradient3919);fill-opacity:1"
     id="path21" />
  <g
     id="g23">
    <path
       d="m 36.31 5 c 5.859 4.062 9.688 10.831 9.688 18.5 c 0 12.426 -10.07 22.5 -22.5 22.5 c -7.669 0 -14.438 -3.828 -18.5 -9.688 c 1.037 1.822 2.306 3.499 3.781 4.969 c 4.085 3.712 9.514 5.969 15.469 5.969 c 12.703 0 23 -10.298 23 -23 c 0 -5.954 -2.256 -11.384 -5.969 -15.469 c -1.469 -1.475 -3.147 -2.744 -4.969 -3.781 z m 4.969 3.781 c 3.854 4.113 6.219 9.637 6.219 15.719 c 0 12.703 -10.297 23 -23 23 c -6.081 0 -11.606 -2.364 -15.719 -6.219 c 4.16 4.144 9.883 6.719 16.219 6.719 c 12.703 0 23 -10.298 23 -23 c 0 -6.335 -2.575 -12.06 -6.719 -16.219 z"
       style="opacity:0.05"
       id="path25" />
    <path
       d="m 41.28 8.781 c 3.712 4.085 5.969 9.514 5.969 15.469 c 0 12.703 -10.297 23 -23 23 c -5.954 0 -11.384 -2.256 -15.469 -5.969 c 4.113 3.854 9.637 6.219 15.719 6.219 c 12.703 0 23 -10.298 23 -23 c 0 -6.081 -2.364 -11.606 -6.219 -15.719 z"
       style="opacity:0.1"
       id="path27" />
    <path
       d="m 31.25 2.375 c 8.615 3.154 14.75 11.417 14.75 21.13 c 0 12.426 -10.07 22.5 -22.5 22.5 c -9.708 0 -17.971 -6.135 -21.12 -14.75 a 23 23 0 0 0 44.875 -7 a 23 23 0 0 0 -16 -21.875 z"
       style="opacity:0.2"
       id="path29" />
  </g>
  <path
     d="M 24 1 C 11.297 1 1 11.297 1 24 C 1 36.703 11.297 47 24 47 C 36.703 47 47 36.703 47 24 C 47 11.297 36.703 1 24 1 z "
     style="fill:#e6e6e6;fill-opacity:1"
     id="path31" />
  <path
     d="m 5.906 22.973 c 0 0 6.582 13.445 16.461 15.258 9.875 1.816 15.05 -2.414 13.637 -6.645 -1.41 -4.23 -8.777 -8.16 -13.324 -4.531 -4.547 3.625 -4.699 2.566 -8.148 1.207 -3.449 -1.359 -5.645 -8.16 -5.645 -8.16 0 0 -2.195 -5.137 -3.918 -2.871 -1.727 2.27 0.938 5.742 0.938 5.742 m 0 0"
     style="fill:url(#linearGradient3109);stroke:none;fill-rule:nonzero"
     id="path33" />
  <path
     d="m 15.13,13.06 c -0.379,0.027 -0.926,0.266 -1.719,0.938 -1.508,0.863 -1.02,2.074 -0.656,2.656 0.262,-0.395 0.727,-0.93 1.5,-1.656 0.715,-0.668 1.402,-0.977 1.969,-1.145 L 15.911,13.447 C 15.739,13.228 15.513,13.045 15.13,13.072 m 1.625,1.465 c -0.574,0.141 -1.301,0.414 -2.031,0.969 -0.898,0.688 -1.289,1.301 -1.469,1.723 l 5.188,4.375 c 0.215,-0.418 0.492,-0.844 0.875,-1.25 0.418,-0.441 0.82,-0.73 1.191,-0.973 l -3.75,-4.844 m 8.84,4.816 c -0.297,0 -0.609,0.012 -0.906,0.02 -1.387,0.078 -2.66,0.332 -3.625,0.625 -0.016,0.023 -0.043,-0.012 -0.063,0 -0.25,0.191 -0.551,0.48 -1,0.941 -0.41,0.418 -0.703,0.809 -0.906,1.191 -0.008,0.023 -0.02,0.063 -0.031,0.094 -1.086,2.926 0.207,7.855 4.969,9 5.398,1.293 5.688,-0.105 8,1.438 2.324,1.539 1.023,3.871 2.125,3.223 0.566,-0.328 2.359,-2.781 1.691,-6.781 -0.723,-4.285 -2.605,-6.566 -4.5,-8.125 -1.469,-1.211 -3.648,-1.625 -5.75,-1.625 m -0.004,0"
     style="fill:#666666;fill-opacity:1;stroke:none;fill-rule:nonzero"
     id="path35" />
  <g
     id="g37">
    <path
       d="m 40.03 7.531 c 3.712 4.084 5.969 9.514 5.969 15.469 0 12.703 -10.297 23 -23 23 c -5.954 0 -11.384 -2.256 -15.469 -5.969 4.178 4.291 10.01 6.969 16.469 6.969 c 12.703 0 23 -10.298 23 -23 0 -6.462 -2.677 -12.291 -6.969 -16.469 z"
       style="opacity:0.1"
       id="path39" />
  </g>
  <path
     inkscape:connector-curvature="0"
     d="m 6.1381516,28.060218 c 0,0 6.5820004,13.444999 16.4610004,15.257999 9.875,1.816 15.05,-2.414 13.637,-6.645 -1.41,-4.23 -8.777,-8.159999 -13.324,-4.531 -4.547,3.625 -4.699,2.566 -8.148,1.207 -3.449,-1.359 -5.6450002,-8.159999 -5.6450002,-8.159999 0,0 -2.195,-5.137 -3.9180001,-2.871 -1.727,2.27 0.9379999,5.742 0.9379999,5.742 m 0,0"
     style="fill:#ffff00;fill-opacity:0.075;fill-rule:nonzero;stroke:none"
     id="path33-5" />
</svg>
