<?xml version="1.0" encoding="UTF-8" standalone="no"?>
<svg
   xmlns:osb="http://www.openswatchbook.org/uri/2009/osb"
   xmlns:dc="http://purl.org/dc/elements/1.1/"
   xmlns:cc="http://creativecommons.org/ns#"
   xmlns:rdf="http://www.w3.org/1999/02/22-rdf-syntax-ns#"
   xmlns:svg="http://www.w3.org/2000/svg"
   xmlns="http://www.w3.org/2000/svg"
   xmlns:sodipodi="http://sodipodi.sourceforge.net/DTD/sodipodi-0.dtd"
   xmlns:inkscape="http://www.inkscape.org/namespaces/inkscape"
   viewBox="0 0 48 48"
   id="svg12589"
   version="1.1"
   inkscape:version="0.91 r13725"
   sodipodi:docname="dolphin-emu.svg">
  <metadata
     id="metadata12636">
    <rdf:RDF>
      <cc:Work
         rdf:about="">
        <dc:format>image/svg+xml</dc:format>
        <dc:type
           rdf:resource="http://purl.org/dc/dcmitype/StillImage" />
      </cc:Work>
    </rdf:RDF>
  </metadata>
  <sodipodi:namedview
     pagecolor="#ffffff"
     bordercolor="#666666"
     borderopacity="1"
     objecttolerance="10"
     gridtolerance="10"
     guidetolerance="10"
     inkscape:pageopacity="0"
     inkscape:pageshadow="2"
     inkscape:window-width="1863"
     inkscape:window-height="1021"
     id="namedview12634"
     showgrid="false"
     inkscape:zoom="4.9166667"
     inkscape:cx="-13.016949"
     inkscape:cy="23.694915"
     inkscape:window-x="57"
     inkscape:window-y="31"
     inkscape:window-maximized="1"
     inkscape:current-layer="svg12589" />
  <defs
     id="defs12591">
    <linearGradient
       id="linearGradient3764"
       x1="1"
       x2="47"
       gradientUnits="userSpaceOnUse"
       gradientTransform="matrix(0,-1,1,0,-1.5e-6,47.999998)"
       osb:paint="gradient">
      <stop
         style="stop-color:#ffffff;stop-opacity:1;"
         id="stop12594" />
      <stop
         offset="1"
         style="stop-color:#01b3f1;stop-opacity:1"
         id="stop12596" />
    </linearGradient>
  </defs>
  <g
     id="g12598">
    <path
       d="m 36.31 5 c 5.859 4.062 9.688 10.831 9.688 18.5 c 0 12.426 -10.07 22.5 -22.5 22.5 c -7.669 0 -14.438 -3.828 -18.5 -9.688 c 1.037 1.822 2.306 3.499 3.781 4.969 c 4.085 3.712 9.514 5.969 15.469 5.969 c 12.703 0 23 -10.298 23 -23 c 0 -5.954 -2.256 -11.384 -5.969 -15.469 c -1.469 -1.475 -3.147 -2.744 -4.969 -3.781 z m 4.969 3.781 c 3.854 4.113 6.219 9.637 6.219 15.719 c 0 12.703 -10.297 23 -23 23 c -6.081 0 -11.606 -2.364 -15.719 -6.219 c 4.16 4.144 9.883 6.719 16.219 6.719 c 12.703 0 23 -10.298 23 -23 c 0 -6.335 -2.575 -12.06 -6.719 -16.219 z"
       style="opacity:0.05"
       id="path12600" />
    <path
       d="m 41.28 8.781 c 3.712 4.085 5.969 9.514 5.969 15.469 c 0 12.703 -10.297 23 -23 23 c -5.954 0 -11.384 -2.256 -15.469 -5.969 c 4.113 3.854 9.637 6.219 15.719 6.219 c 12.703 0 23 -10.298 23 -23 c 0 -6.081 -2.364 -11.606 -6.219 -15.719 z"
       style="opacity:0.1"
       id="path12602" />
    <path
       d="m 31.25 2.375 c 8.615 3.154 14.75 11.417 14.75 21.13 c 0 12.426 -10.07 22.5 -22.5 22.5 c -9.708 0 -17.971 -6.135 -21.12 -14.75 a 23 23 0 0 0 44.875 -7 a 23 23 0 0 0 -16 -21.875 z"
       style="opacity:0.2"
       id="path12604" />
  </g>
  <g
     id="g12606"
     style="fill:#e6e6e6;fill-opacity:1">
    <path
       d="m 24 1 c 12.703 0 23 10.297 23 23 c 0 12.703 -10.297 23 -23 23 -12.703 0 -23 -10.297 -23 -23 0 -12.703 10.297 -23 23 -23 z"
       style="fill:#e6e6e6;fill-opacity:1"
       id="path12608" />
  </g>
  <g
     id="g12610">
    <g
       id="g12612">
      <g
         transform="translate(1,1)"
         id="g12614">
        <g
           style="opacity:0.1"
           id="g12616">
          <!-- color: #01b3f1 -->
          <g
             id="g12618">
            <path
               d="m 20.383 14 c 0.078 -0.004 0.133 0.023 0.176 0.09 c 0.215 0.379 -0.215 1.613 0.109 2.254 c 0.324 0.645 0.324 0.805 2.906 0.484 c 2.582 -0.324 6.457 0.801 7.859 2.195 c 1.398 1.395 3.82 4.938 4.305 6.973 c 0.484 2.039 0.273 2.145 -0.375 1.824 c -0.645 -0.32 -1.184 -3.16 -5.01 -5.04 c -3.824 -1.879 -5.602 -0.379 -5.602 -0.379 c 0 0 3.285 -0.43 5.707 1.555 c 2.426 1.984 3.93 3.539 3.879 4.129 c -0.055 0.59 -0.273 0.484 -0.648 0 c -0.379 -0.48 -2.637 -3.434 -5.328 -4.395 c -2.688 -0.965 -3.82 -0.91 -4.84 -0.375 c -1.023 0.535 -1.242 1.07 0.211 1.449 c 1.453 0.375 2.047 0.215 2.047 0.215 c 0 0 -1.238 1.121 -3.01 1.121 c -1.777 0 -2.852 -0.105 -2.852 -0.105 c 0 0 -4.414 4.559 -5.547 5.473 c -1.129 0.91 -2.367 0.484 -2.367 -0.055 c 0 -0.535 0.539 -2.035 0.539 -2.035 c 0 0 -1.125 -2.523 0.164 -5.367 c 1.293 -2.84 4.844 -5.789 4.844 -5.789 c 0 0 0.375 -1.609 1.18 -2.68 c 0.656 -0.871 1.316 -1.527 1.652 -1.543 m 0 -0.004"
               style="fill:#000;fill-opacity:1;stroke:none;fill-rule:nonzero"
               id="path12620" />
          </g>
        </g>
      </g>
    </g>
  </g>
  <g
     id="g12622"
     style="fill:#0093ff;fill-opacity:1">
    <g
       id="g12624"
       style="fill:#0093ff;fill-opacity:1">
      <!-- color: #01b3f1 -->
      <g
         id="g12626"
         style="fill:#0093ff;fill-opacity:1">
        <path
           d="m 20.383 14 c 0.078 -0.004 0.133 0.023 0.176 0.09 c 0.215 0.379 -0.215 1.613 0.109 2.254 c 0.324 0.645 0.324 0.805 2.906 0.484 c 2.582 -0.324 6.457 0.801 7.859 2.195 c 1.398 1.395 3.82 4.938 4.305 6.973 c 0.484 2.039 0.273 2.145 -0.375 1.824 c -0.645 -0.32 -1.184 -3.16 -5.01 -5.04 c -3.824 -1.879 -5.602 -0.379 -5.602 -0.379 c 0 0 3.285 -0.43 5.707 1.555 c 2.426 1.984 3.93 3.539 3.879 4.129 c -0.055 0.59 -0.273 0.484 -0.648 0 c -0.379 -0.48 -2.637 -3.434 -5.328 -4.395 c -2.688 -0.965 -3.82 -0.91 -4.84 -0.375 c -1.023 0.535 -1.242 1.07 0.211 1.449 c 1.453 0.375 2.047 0.215 2.047 0.215 c 0 0 -1.238 1.121 -3.01 1.121 c -1.777 0 -2.852 -0.105 -2.852 -0.105 c 0 0 -4.414 4.559 -5.547 5.473 c -1.129 0.91 -2.367 0.484 -2.367 -0.055 c 0 -0.535 0.539 -2.035 0.539 -2.035 c 0 0 -1.125 -2.523 0.164 -5.367 c 1.293 -2.84 4.844 -5.789 4.844 -5.789 c 0 0 0.375 -1.609 1.18 -2.68 c 0.656 -0.871 1.316 -1.527 1.652 -1.543 m 0 -0.004"
           style="fill:#0093ff;fill-opacity:1;stroke:none;fill-rule:nonzero"
           id="path12628" />
      </g>
    </g>
  </g>
  <g
     id="g12630">
    <path
       d="m 40.03 7.531 c 3.712 4.084 5.969 9.514 5.969 15.469 0 12.703 -10.297 23 -23 23 c -5.954 0 -11.384 -2.256 -15.469 -5.969 4.178 4.291 10.01 6.969 16.469 6.969 c 12.703 0 23 -10.298 23 -23 0 -6.462 -2.677 -12.291 -6.969 -16.469 z"
       style="opacity:0.1"
       id="path12632" />
  </g>
</svg>
