<?xml version="1.0" encoding="UTF-8" standalone="no"?>
<svg
   xmlns:dc="http://purl.org/dc/elements/1.1/"
   xmlns:cc="http://creativecommons.org/ns#"
   xmlns:rdf="http://www.w3.org/1999/02/22-rdf-syntax-ns#"
   xmlns:svg="http://www.w3.org/2000/svg"
   xmlns="http://www.w3.org/2000/svg"
   xmlns:sodipodi="http://sodipodi.sourceforge.net/DTD/sodipodi-0.dtd"
   xmlns:inkscape="http://www.inkscape.org/namespaces/inkscape"
   viewBox="0 0 48 48"
   id="svg2"
   version="1.1"
   inkscape:version="0.92.1 r"
   sodipodi:docname="system-file-manager.svg">
  <metadata
     id="metadata41">
    <rdf:RDF>
      <cc:Work
         rdf:about="">
        <dc:format>image/svg+xml</dc:format>
        <dc:type
           rdf:resource="http://purl.org/dc/dcmitype/StillImage" />
      </cc:Work>
    </rdf:RDF>
  </metadata>
  <sodipodi:namedview
     pagecolor="#ffffff"
     bordercolor="#666666"
     borderopacity="1"
     objecttolerance="10"
     gridtolerance="10"
     guidetolerance="10"
     inkscape:pageopacity="0"
     inkscape:pageshadow="2"
     inkscape:window-width="1920"
     inkscape:window-height="1025"
     id="namedview39"
     showgrid="false"
     inkscape:zoom="13.906433"
     inkscape:cx="20.387512"
     inkscape:cy="20.234658"
     inkscape:window-x="0"
     inkscape:window-y="27"
     inkscape:window-maximized="1"
     inkscape:current-layer="g27" />
  <defs
     id="defs4">
    <linearGradient
       id="linearGradient3764"
       x1="1"
       x2="47"
       gradientUnits="userSpaceOnUse"
       gradientTransform="matrix(0,-1,1,0,-1.5e-6,47.999998)">
      <stop
         style="stop-color:#7568a0;stop-opacity:1"
         id="stop7" />
      <stop
         offset="1"
         style="stop-color:#8074a8;stop-opacity:1"
         id="stop9" />
    </linearGradient>
  </defs>
  <g
     transform="translate(-0.55324779,-0.5895711)"
     id="g11">
    <path
       inkscape:connector-curvature="0"
       d="m 36.31,5 c 5.859,4.062 9.688,10.831 9.688,18.5 0,12.426 -10.07,22.5 -22.5,22.5 -7.669,0 -14.438,-3.828 -18.5,-9.688 1.037,1.822 2.306,3.499 3.781,4.969 4.085,3.712 9.514,5.969 15.469,5.969 12.703,0 23,-10.298 23,-23 0,-5.954 -2.256,-11.384 -5.969,-15.469 C 39.81,7.306 38.132,6.037 36.31,5 Z m 4.969,3.781 c 3.854,4.113 6.219,9.637 6.219,15.719 0,12.703 -10.297,23 -23,23 -6.081,0 -11.606,-2.364 -15.719,-6.219 4.16,4.144 9.883,6.719 16.219,6.719 12.703,0 23,-10.298 23,-23 0,-6.335 -2.575,-12.06 -6.719,-16.219 z"
       style="opacity:0.05"
       id="path13" />
    <path
       inkscape:connector-curvature="0"
       d="m 41.28,8.781 c 3.712,4.085 5.969,9.514 5.969,15.469 0,12.703 -10.297,23 -23,23 -5.954,0 -11.384,-2.256 -15.469,-5.969 4.113,3.854 9.637,6.219 15.719,6.219 12.703,0 23,-10.298 23,-23 0,-6.081 -2.364,-11.606 -6.219,-15.719 z"
       style="opacity:0.1"
       id="path15" />
    <path
       inkscape:connector-curvature="0"
       d="M 31.25,2.375 C 39.865,5.529 46,13.792 46,23.505 c 0,12.426 -10.07,22.5 -22.5,22.5 -9.708,0 -17.971,-6.135 -21.12,-14.75 a 23,23 0 0 0 44.875,-7 23,23 0 0 0 -16,-21.875 z"
       style="opacity:0.2"
       id="path17" />
  </g>
  <path
     inkscape:connector-curvature="0"
     d="m 23.446752,0.41042888 c 12.703,0 23,10.29700112 23,23.00000012 0,12.703 -10.297,23 -23,23 -12.703,0 -22.99999983,-10.297 -22.99999983,-23 0,-12.702999 10.29699983,-23.00000012 22.99999983,-23.00000012 z"
     style="fill:#ececec;fill-opacity:1"
     id="path19" />
  <g
     transform="translate(-0.55324779,-0.5895711)"
     id="g21">
    <path
       inkscape:connector-curvature="0"
       d="m 40.03,7.531 c 3.712,4.084 5.969,9.514 5.969,15.469 0,12.703 -10.297,23 -23,23 C 17.045,46 11.615,43.744 7.53,40.031 11.708,44.322 17.54,47 23.999,47 c 12.703,0 23,-10.298 23,-23 0,-6.462 -2.677,-12.291 -6.969,-16.469 z"
       style="opacity:0.1"
       id="path23" />
  </g>
  <g
     transform="matrix(3.703803,0,0,3.651725,-2.3487591,-0.63359359)"
     id="g27"
     style="stroke:#000000;stroke-width:0.14111111;stroke-miterlimit:4;stroke-dasharray:none;stroke-opacity:0.04469275">
    <g
       transform="matrix(0.99522302,0,0,0.96980805,0.62200766,0.49298739)"
       style="opacity:0.1;fill:#000000;fill-opacity:1;stroke:none"
       id="g29">
      <path
         inkscape:connector-curvature="0"
         d="m 14,16 c -0.5,0 -1,0.498 -1,0.998 h -0.002 c 0,5.669 0,11.337 0,17.01 H 36.996 V 19.076 c 0,-0.531 -0.5,-1.066 -1,-1.066 H 35 c -2.987,-0.016 -6,-0.008 -9,-0.008 l -1,-1.998 z"
         transform="matrix(0.28222223,0,0,0.28222223,-0.28222231,-0.56444449)"
         style="stroke:none"
         id="path31" />
    </g>
    <path
       inkscape:connector-curvature="0"
       d="M 3.7120046,4.3252377 V 8.1569493 H 10.171998 V 6.2406087 L 9.8913447,4.5987236 H 7.3634778 L 7.0828249,4.0517519 H 3.9936527 c -0.1403264,0 -0.2806529,0.1367429 -0.2806529,0.2734858 z"
       style="fill:#ffffff;fill-opacity:1;stroke:#000000;stroke-width:0.27726454;stroke-miterlimit:4;stroke-dasharray:none;stroke-opacity:0.32394367"
       id="path35" />
    <rect
       y="4.8722095"
       x="4.2733107"
       height="1.0949132"
       width="3.0891724"
       style="fill:#42a5f5;fill-opacity:1;stroke:none;stroke-width:0.27726454;stroke-miterlimit:4;stroke-dasharray:none;stroke-opacity:0.5070422"
       id="rect37" />
    <path
       inkscape:connector-curvature="0"
       d="m 10.342824,5.0577266 v 4.087741 H 3.6021778 V 5.3137559 H 6.972998 L 7.2536509,4.7667842 h 2.8085201 c 0.140326,0 0.280653,0.146441 0.280653,0.2919122 z"
       style="fill:#ffffff;fill-opacity:1;stroke:#000000;stroke-width:0.19408517;stroke-miterlimit:4;stroke-dasharray:none;stroke-opacity:0.23474181"
       id="path39" />
    <path
       inkscape:connector-curvature="0"
       d="m 6.1065112,5.6936369 c -0.1453026,0 -0.285629,0.019396 -0.4189889,0.05237 0,-0.00194 0,-0.00291 0,-0.00582 -0.1492834,0.037823 -0.2627389,0.087283 -0.2846338,0.096981 0,0.00291 0,0.00582 0,0 0,0 -0.00299,0 -0.00597,0.00194 0.015924,0.1183165 0.037818,0.2356633 0.048766,0.2899726 0.1184315,0.4887832 0.4617835,0.8912537 0.9146099,1.1055811 -0.002,0.032974 -0.00597,0.064977 -0.00597,0.09892 0,0.4509608 0.1871017,0.8592501 0.4866641,1.1569812 -0.002,0 0.002,0.00194 0,0.00291 0.086584,0.079524 0.2040206,0.1706861 0.2289012,0.1891125 0.00597,0.00291 0.016918,0.00582 0.019904,0.010669 0.099522,-0.085343 0.1890924,-0.1784447 0.2119827,-0.2026899 0.2995621,-0.298701 0.4866638,-0.7060203 0.4866638,-1.1569812 0,-0.031034 -0.00597,-0.061098 -0.00597,-0.092131 0.4617834,-0.2075392 0.8091162,-0.6100095 0.9335191,-1.0997625 -0.002,0 0,-0.00194 0,-0.00291 0.030852,-0.1309241 0.052747,-0.2734859 0.052747,-0.2890028 -0.002,0 -0.00597,-0.00194 -0.00796,-0.00291 0,-0.00776 0,0 0,-0.00582 -0.063694,-0.028124 -0.2089968,-0.075645 -0.2856291,-0.1008601 0,0.00582 0,-0.00194 0,0.00291 -0.1393282,-0.036852 -0.2866211,-0.059157 -0.4359047,-0.059157 -0.361266,0 -0.6956609,0.1134676 -0.9693472,0.3025802 -0.1054937,0.077585 -0.1811306,0.1445013 -0.2298967,0.1891125 -0.00597,0.00582 -0.00896,0.011638 -0.013932,0.017457 -0.1582406,0.1600183 -0.2816481,0.3520403 -0.3632564,0.5634582 0.088575,0.0514 0.1771496,0.094072 0.2557723,0.1309242 0.065685,-0.1862032 0.1741639,-0.3539798 0.3115047,-0.4946019 0,-0.00194 0.00597,-0.00776 0.00896,-0.010668 0.00597,-0.00776 0.012938,-0.016487 0.02289,-0.024245 0.002,-0.00291 0.00597,-0.00291 0.00896,-0.00582 0.097532,-0.083403 0.1741639,-0.1377127 0.231887,-0.1745655 0.028861,-0.017457 0.057723,-0.033943 0.087579,-0.04946 0.1940686,-0.10086 0.4130176,-0.1580787 0.6488855,-0.1580787 0.1403266,0 0.2776673,0.020366 0.406051,0.059158 C 8.3596944,6.4287515 8.0969555,6.7623653 7.7376802,6.9495382 7.6819477,6.718724 7.5774492,6.5034267 7.4321467,6.3220726 7.3117248,6.4045063 7.2082214,6.4879098 7.2002596,6.4937287 c 0.1184315,0.1474108 0.2060112,0.3200364 0.254777,0.5072094 0,0 0.00597,0.019396 0.013934,0.055279 0.00299,0.017457 0.00597,0.028125 0.012938,0.062068 0.017914,0.085343 0.015924,0.1842633 0.013934,0.2230556 0,0.00776 0,0.028125 0,0.028125 l -0.00299,0.00485 C 7.481909,7.7438119 7.3216789,8.0754864 7.067897,8.3150288 6.8051581,8.0686975 6.6409461,7.7215063 6.6399509,7.3355227 c 0.1403266,0.037823 0.2876195,0.059158 0.4398887,0.059158 0.082603,0 0.1652069,-0.00873 0.2438296,-0.020366 0.00498,-0.028124 0.00597,-0.060128 0.00896,-0.1076486 0.00299,-0.085343 -0.00796,-0.1445015 -0.016918,-0.177475 -0.076632,0.012608 -0.15625,0.019396 -0.2348727,0.019396 -0.1413218,0 -0.2786625,-0.020366 -0.4080414,-0.058189 C 6.5702852,7.0300336 6.4737485,6.9805732 6.4040828,6.9379018 6.364274,6.9146252 6.3383982,6.8971698 6.3234697,6.8884416 6.0149507,6.6935091 5.7880398,6.3870497 5.7114077,6.0224018 c 0.1244028,-0.034913 0.2547771,-0.055279 0.3911226,-0.055279 0.1990446,0 0.3851514,0.040732 0.5563296,0.1144373 C 6.7424588,6.0049453 6.8429763,5.9273607 6.9006991,5.8846891 6.6638361,5.7586141 6.3921402,5.6849086 6.1035255,5.6849086 m 0.00199,0"
       style="opacity:0.6;fill:#999999;fill-opacity:1;fill-rule:nonzero;stroke:none;stroke-width:0.98243332"
       id="path41"
       inkscape:transform-center-x="0.20338983"
       inkscape:transform-center-y="-1.6271186" />
  </g>
</svg>
