<?xml version="1.0" encoding="UTF-8" standalone="no"?>
<svg
   xmlns:dc="http://purl.org/dc/elements/1.1/"
   xmlns:cc="http://creativecommons.org/ns#"
   xmlns:rdf="http://www.w3.org/1999/02/22-rdf-syntax-ns#"
   xmlns:svg="http://www.w3.org/2000/svg"
   xmlns="http://www.w3.org/2000/svg"
   xmlns:sodipodi="http://sodipodi.sourceforge.net/DTD/sodipodi-0.dtd"
   xmlns:inkscape="http://www.inkscape.org/namespaces/inkscape"
   viewBox="0 0 48 48"
   id="svg2"
   version="1.1"
   inkscape:version="0.92.1 r"
   sodipodi:docname="system-file-manager.svg">
  <metadata
     id="metadata41">
    <rdf:RDF>
      <cc:Work
         rdf:about="">
        <dc:format>image/svg+xml</dc:format>
        <dc:type
           rdf:resource="http://purl.org/dc/dcmitype/StillImage" />
      </cc:Work>
    </rdf:RDF>
  </metadata>
  <sodipodi:namedview
     pagecolor="#ffffff"
     bordercolor="#666666"
     borderopacity="1"
     objecttolerance="10"
     gridtolerance="10"
     guidetolerance="10"
     inkscape:pageopacity="0"
     inkscape:pageshadow="2"
     inkscape:window-width="1848"
     inkscape:window-height="1023"
     id="namedview39"
     showgrid="false"
     inkscape:zoom="13.906433"
     inkscape:cx="13.926633"
     inkscape:cy="20.234658"
     inkscape:window-x="72"
     inkscape:window-y="28"
     inkscape:window-maximized="1"
     inkscape:current-layer="g27" />
  <defs
     id="defs4">
    <linearGradient
       id="linearGradient3764"
       x1="1"
       x2="47"
       gradientUnits="userSpaceOnUse"
       gradientTransform="matrix(0,-1,1,0,-1.5e-6,47.999998)">
      <stop
         style="stop-color:#7568a0;stop-opacity:1"
         id="stop7" />
      <stop
         offset="1"
         style="stop-color:#8074a8;stop-opacity:1"
         id="stop9" />
    </linearGradient>
  </defs>
  <g
     transform="translate(-0.55324779,-0.5895711)"
     id="g11">
    <path
       inkscape:connector-curvature="0"
       d="m 36.31,5 c 5.859,4.062 9.688,10.831 9.688,18.5 0,12.426 -10.07,22.5 -22.5,22.5 -7.669,0 -14.438,-3.828 -18.5,-9.688 1.037,1.822 2.306,3.499 3.781,4.969 4.085,3.712 9.514,5.969 15.469,5.969 12.703,0 23,-10.298 23,-23 0,-5.954 -2.256,-11.384 -5.969,-15.469 C 39.81,7.306 38.132,6.037 36.31,5 Z m 4.969,3.781 c 3.854,4.113 6.219,9.637 6.219,15.719 0,12.703 -10.297,23 -23,23 -6.081,0 -11.606,-2.364 -15.719,-6.219 4.16,4.144 9.883,6.719 16.219,6.719 12.703,0 23,-10.298 23,-23 0,-6.335 -2.575,-12.06 -6.719,-16.219 z"
       style="opacity:0.05"
       id="path13" />
    <path
       inkscape:connector-curvature="0"
       d="m 41.28,8.781 c 3.712,4.085 5.969,9.514 5.969,15.469 0,12.703 -10.297,23 -23,23 -5.954,0 -11.384,-2.256 -15.469,-5.969 4.113,3.854 9.637,6.219 15.719,6.219 12.703,0 23,-10.298 23,-23 0,-6.081 -2.364,-11.606 -6.219,-15.719 z"
       style="opacity:0.1"
       id="path15" />
    <path
       inkscape:connector-curvature="0"
       d="M 31.25,2.375 C 39.865,5.529 46,13.792 46,23.505 c 0,12.426 -10.07,22.5 -22.5,22.5 -9.708,0 -17.971,-6.135 -21.12,-14.75 a 23,23 0 0 0 44.875,-7 23,23 0 0 0 -16,-21.875 z"
       style="opacity:0.2"
       id="path17" />
  </g>
  <path
     inkscape:connector-curvature="0"
     d="m 23.446752,0.41042888 c 12.703,0 23,10.29700112 23,23.00000012 0,12.703 -10.297,23 -23,23 -12.703,0 -22.99999983,-10.297 -22.99999983,-23 0,-12.702999 10.29699983,-23.00000012 22.99999983,-23.00000012 z"
     style="fill:#ececec;fill-opacity:1"
     id="path19" />
  <g
     transform="translate(-0.55324779,-0.5895711)"
     id="g21">
    <path
       inkscape:connector-curvature="0"
       d="m 40.03,7.531 c 3.712,4.084 5.969,9.514 5.969,15.469 0,12.703 -10.297,23 -23,23 C 17.045,46 11.615,43.744 7.53,40.031 11.708,44.322 17.54,47 23.999,47 c 12.703,0 23,-10.298 23,-23 0,-6.462 -2.677,-12.291 -6.969,-16.469 z"
       style="opacity:0.1"
       id="path23" />
  </g>
  <g
     transform="matrix(3.703803,0,0,3.651725,-2.3487591,-0.63359359)"
     id="g27"
     style="stroke:#000000;stroke-width:0.14111111;stroke-miterlimit:4;stroke-dasharray:none;stroke-opacity:0.04469275">
    <path
       inkscape:connector-curvature="0"
       d="m 8.4214323,2.4481194 c -0.02737,0 -0.046319,0.00665 -0.061056,0.030992 -0.073689,0.1372544 0.071584,0.5800097 -0.040003,0.8124565 C 8.2108931,3.5240152 8.2108931,3.5815736 7.328734,3.466457 6.4465747,3.3513405 5.1243886,3.7564619 4.6485701,4.2567755 4.1664352,4.7593032 3.3453325,6.0344389 3.1747958,6.7694131 3.0126805,7.5043872 3.0863693,7.5420215 3.3074355,7.4291189 3.5263962,7.3117886 3.7116706,6.2868096 5.0106974,5.6138213 6.3160405,4.9386191 6.9244986,5.476567 6.9244986,5.476567 c 0,0 -1.1221738,-0.15718 -1.9474874,0.5600858 -0.8253137,0.7172638 -1.3411346,1.2729219 -1.3221862,1.4942997 0.018949,0.2125227 0.090532,0.1682476 0.2231716,0 C 4.0064248,7.3560638 4.776999,6.2934509 5.6949499,5.9436741 6.6129007,5.5916834 6.9981874,5.616035 7.3476824,5.8086344 7.6971775,6.0012332 7.7729716,6.1894042 7.2782047,6.3244447 6.7792269,6.4639121 6.5771091,6.4019257 6.5771091,6.4019257 c 0,0 0.4231838,0.4051214 1.0253259,0.4051214 0.6084582,0 0.9769018,-0.039848 0.9769018,-0.039848 0,0 1.5032502,1.6426227 1.8906422,1.9724758 0.383181,0.327639 0.810576,0.172675 0.810576,-0.00222 0,-0.1925986 -0.185274,-0.734974 -0.185274,-0.734974 0,0 0.385286,-0.9098624 -0.05895,-1.9326277 C 10.596302,5.0448804 9.3835959,3.9866948 9.3835959,3.9866948 c 0,0 -0.128428,-0.5800097 -0.4021294,-0.9674208 C 8.758295,2.7071315 8.5330181,2.4702572 8.4172216,2.4658296 M 2.1621023,7.1457552 c -0.052635,0 -0.1094811,0.017714 -0.16001,0.048703 -0.4231838,0.2501568 -0.2021176,0.6973397 0.1663257,0.6973397 0.3663381,0 0.7705734,-0.1571783 0.7705734,-0.1571783 0,0 -0.3937084,-0.6043612 -0.7768896,-0.5888649 M 2.974783,7.889584 c 0,0 -0.8232082,0.1328267 -0.9158454,0.5401618 -0.092636,0.4051217 0.3452847,0.522452 0.6210911,0.3099294 C 2.955835,8.527152 2.9747835,7.8895842 2.9747835,7.8895842 m 0,0"
       style="opacity:1;fill:#308fca;fill-opacity:1;fill-rule:nonzero;stroke:#000000;stroke-width:0.23390186;stroke-miterlimit:4;stroke-dasharray:none;stroke-opacity:0.04469275"
       id="path35" />
  </g>
</svg>
