<?xml version="1.0" encoding="UTF-8" standalone="no"?>
<svg
   xmlns:dc="http://purl.org/dc/elements/1.1/"
   xmlns:cc="http://creativecommons.org/ns#"
   xmlns:rdf="http://www.w3.org/1999/02/22-rdf-syntax-ns#"
   xmlns:svg="http://www.w3.org/2000/svg"
   xmlns="http://www.w3.org/2000/svg"
   xmlns:sodipodi="http://sodipodi.sourceforge.net/DTD/sodipodi-0.dtd"
   xmlns:inkscape="http://www.inkscape.org/namespaces/inkscape"
   viewBox="0 0 48 48"
   id="svg2"
   version="1.1"
   inkscape:version="0.92.1 r"
   sodipodi:docname="system-file-manager.svg">
  <metadata
     id="metadata41">
    <rdf:RDF>
      <cc:Work
         rdf:about="">
        <dc:format>image/svg+xml</dc:format>
        <dc:type
           rdf:resource="http://purl.org/dc/dcmitype/StillImage" />
      </cc:Work>
    </rdf:RDF>
  </metadata>
  <sodipodi:namedview
     pagecolor="#ffffff"
     bordercolor="#666666"
     borderopacity="1"
     objecttolerance="10"
     gridtolerance="10"
     guidetolerance="10"
     inkscape:pageopacity="0"
     inkscape:pageshadow="2"
     inkscape:window-width="1848"
     inkscape:window-height="1023"
     id="namedview39"
     showgrid="false"
     inkscape:zoom="13.906433"
     inkscape:cx="25.36019"
     inkscape:cy="20.234658"
     inkscape:window-x="72"
     inkscape:window-y="28"
     inkscape:window-maximized="1"
     inkscape:current-layer="g27" />
  <defs
     id="defs4">
    <linearGradient
       id="linearGradient3764"
       x1="1"
       x2="47"
       gradientUnits="userSpaceOnUse"
       gradientTransform="matrix(0,-1,1,0,-1.5e-6,47.999998)">
      <stop
         style="stop-color:#7568a0;stop-opacity:1"
         id="stop7" />
      <stop
         offset="1"
         style="stop-color:#8074a8;stop-opacity:1"
         id="stop9" />
    </linearGradient>
  </defs>
  <g
     transform="translate(-0.55324779,-0.5895711)"
     id="g11">
    <path
       inkscape:connector-curvature="0"
       d="m 36.31,5 c 5.859,4.062 9.688,10.831 9.688,18.5 0,12.426 -10.07,22.5 -22.5,22.5 -7.669,0 -14.438,-3.828 -18.5,-9.688 1.037,1.822 2.306,3.499 3.781,4.969 4.085,3.712 9.514,5.969 15.469,5.969 12.703,0 23,-10.298 23,-23 0,-5.954 -2.256,-11.384 -5.969,-15.469 C 39.81,7.306 38.132,6.037 36.31,5 Z m 4.969,3.781 c 3.854,4.113 6.219,9.637 6.219,15.719 0,12.703 -10.297,23 -23,23 -6.081,0 -11.606,-2.364 -15.719,-6.219 4.16,4.144 9.883,6.719 16.219,6.719 12.703,0 23,-10.298 23,-23 0,-6.335 -2.575,-12.06 -6.719,-16.219 z"
       style="opacity:0.05"
       id="path13" />
    <path
       inkscape:connector-curvature="0"
       d="m 41.28,8.781 c 3.712,4.085 5.969,9.514 5.969,15.469 0,12.703 -10.297,23 -23,23 -5.954,0 -11.384,-2.256 -15.469,-5.969 4.113,3.854 9.637,6.219 15.719,6.219 12.703,0 23,-10.298 23,-23 0,-6.081 -2.364,-11.606 -6.219,-15.719 z"
       style="opacity:0.1"
       id="path15" />
    <path
       inkscape:connector-curvature="0"
       d="M 31.25,2.375 C 39.865,5.529 46,13.792 46,23.505 c 0,12.426 -10.07,22.5 -22.5,22.5 -9.708,0 -17.971,-6.135 -21.12,-14.75 a 23,23 0 0 0 44.875,-7 23,23 0 0 0 -16,-21.875 z"
       style="opacity:0.2"
       id="path17" />
  </g>
  <path
     inkscape:connector-curvature="0"
     d="m 23.446752,0.41042888 c 12.703,0 23,10.29700112 23,23.00000012 0,12.703 -10.297,23 -23,23 -12.703,0 -22.99999983,-10.297 -22.99999983,-23 0,-12.702999 10.29699983,-23.00000012 22.99999983,-23.00000012 z"
     style="fill:#ececec;fill-opacity:1"
     id="path19" />
  <g
     transform="translate(-0.55324779,-0.5895711)"
     id="g21">
    <path
       inkscape:connector-curvature="0"
       d="m 40.03,7.531 c 3.712,4.084 5.969,9.514 5.969,15.469 0,12.703 -10.297,23 -23,23 C 17.045,46 11.615,43.744 7.53,40.031 11.708,44.322 17.54,47 23.999,47 c 12.703,0 23,-10.298 23,-23 0,-6.462 -2.677,-12.291 -6.969,-16.469 z"
       style="opacity:0.1"
       id="path23" />
  </g>
  <path
     inkscape:connector-curvature="0"
     d="m 10.086871,11.870972 c -0.6308809,0 -1.2617609,0.672225 -1.2617609,1.344449 0,7.618998 0,15.23665 0,22.855647 H 39.107391 V 15.993055 c 0,-0.716592 -0.630881,-1.433184 -1.261762,-1.433184 -4.205451,0 -8.412165,0 -12.617617,0 L 23.96625,11.870972 Z"
     style="opacity:0.1;fill:#000000;fill-opacity:1;stroke:none;stroke-width:1.30244982"
     id="path25" />
  <g
     transform="matrix(3.543307,0,0,3.543307,-0.55324779,-0.5895711)"
     id="g27"
     style="stroke:#000000;stroke-opacity:0.04469274;stroke-width:0.14111111;stroke-miterlimit:4;stroke-dasharray:none">
    <path
       inkscape:connector-curvature="0"
       d="M 2.2911043,3.5172391 V 8.8291606 H 10.481199 V 6.1725277 L 10.125383,3.896374 H 6.9205081 L 6.5646913,3.1381043 H 2.6481829 c -0.1779084,0 -0.3558168,0.1895674 -0.3558168,0.3791348 z"
       style="fill:#779bb4;fill-opacity:1;stroke:#000000;stroke-width:0.14111111;stroke-opacity:0.04469274;stroke-miterlimit:4;stroke-dasharray:none"
       id="path29" />
    <rect
       y="4.2755089"
       x="3.002738"
       height="1.5178839"
       width="3.9165084"
       style="fill:#ececec;fill-opacity:1;stroke:#000000;stroke-width:0.14111111;stroke-opacity:0.04469274;stroke-miterlimit:4;stroke-dasharray:none"
       id="rect31" />
    <path
       inkscape:connector-curvature="0"
       d="M 10.837016,4.3010534 V 9.9679097 H 2.2911043 V 4.6559882 h 4.273587 L 6.9205081,3.8977184 h 3.5606909 c 0.177909,0 0.355817,0.203012 0.355817,0.4046795 z"
       style="fill:#779bb4;fill-opacity:1;stroke:#000000;stroke-width:0.14111111;stroke-opacity:0.04469274;stroke-miterlimit:4;stroke-dasharray:none"
       id="path33" />
    <path
       inkscape:connector-curvature="0"
       d="m 7.3419365,5.3161131 c -0.016403,0 -0.027759,0.00404 -0.036591,0.018822 -0.044162,0.083356 0.0429,0.3522459 -0.023974,0.4934132 C 7.2157603,5.9695157 7.2157603,6.0044715 6.6870822,5.93456 6.158404,5.8646486 5.3660176,6.110683 5.0808595,6.4145286 4.791916,6.7197188 4.299829,7.4941219 4.1976263,7.9404793 4.1004706,8.3868366 4.1446323,8.4096923 4.2771173,8.3411254 4.4083405,8.2698695 4.5193755,7.6473892 5.2978825,7.2386765 6.0801748,6.8286192 6.4448239,7.1553205 6.4448239,7.1553205 c 0,0 -0.672519,-0.095457 -1.1671296,0.3401459 C 4.7830837,7.9310681 4.4739521,8.268525 4.4853079,8.40297 c 0.011356,0.1290672 0.054256,0.1021785 0.1337468,0 C 4.6960217,8.2967583 5.157827,7.6514225 5.7079551,7.4389995 6.2580832,7.2252319 6.4889856,7.2400209 6.698438,7.3569882 6.9078905,7.4739554 6.9533139,7.5882336 6.6568,7.6702451 c -0.2990375,0.0847 -0.4201667,0.047055 -0.4201667,0.047055 0,0 0.2536141,0.2460344 0.614478,0.2460344 0.3646491,0 0.5854574,-0.0242 0.5854574,-0.0242 0,0 0.9008979,0.9975817 1.1330621,1.1979049 0.2296406,0.1989785 0.4857785,0.1048673 0.4857785,-0.00135 0,-0.1169671 -0.111035,-0.4463573 -0.111035,-0.4463573 0,0 0.230902,-0.5525688 -0.03533,-1.1737047 C 8.6453364,6.8931528 7.9185616,6.2505058 7.9185616,6.2505058 c 0,0 -0.076967,-0.3522459 -0.2409965,-0.5875246 C 7.5438184,5.4734138 7.4088099,5.3295576 7.339413,5.3268687 m -3.7486941,2.842167 c -0.031544,0 -0.065612,0.010758 -0.095894,0.029578 -0.2536141,0.1519228 -0.1211291,0.4235016 0.099679,0.4235016 0.2195465,0 0.4618048,-0.095456 0.4618048,-0.095456 0,0 -0.2359495,-0.3670348 -0.4655901,-0.3576237 m 0.48704,0.4517352 c 0,0 -0.4933488,0.080667 -0.5488663,0.3280458 -0.055517,0.2460346 0.2069292,0.3172905 0.37222,0.1882233 0.1652908,-0.1290675 0.1766466,-0.516269 0.1766466,-0.516269 m 0,0"
       style="opacity:1;fill:#ececec;fill-opacity:1;fill-rule:nonzero;stroke:#000000;stroke-width:0.14111111;stroke-opacity:0.04469274;stroke-miterlimit:4;stroke-dasharray:none"
       id="path35" />
  </g>
</svg>
