<?xml version="1.0" encoding="UTF-8" standalone="no"?>
<svg
   xmlns:osb="http://www.openswatchbook.org/uri/2009/osb"
   xmlns:dc="http://purl.org/dc/elements/1.1/"
   xmlns:cc="http://creativecommons.org/ns#"
   xmlns:rdf="http://www.w3.org/1999/02/22-rdf-syntax-ns#"
   xmlns:svg="http://www.w3.org/2000/svg"
   xmlns="http://www.w3.org/2000/svg"
   xmlns:sodipodi="http://sodipodi.sourceforge.net/DTD/sodipodi-0.dtd"
   xmlns:inkscape="http://www.inkscape.org/namespaces/inkscape"
   viewBox="0 0 48 48"
   id="svg4451"
   version="1.1"
   inkscape:version="0.91 r13725"
   sodipodi:docname="hexchat.svg">
  <metadata
     id="metadata4500">
    <rdf:RDF>
      <cc:Work
         rdf:about="">
        <dc:format>image/svg+xml</dc:format>
        <dc:type
           rdf:resource="http://purl.org/dc/dcmitype/StillImage" />
      </cc:Work>
    </rdf:RDF>
  </metadata>
  <sodipodi:namedview
     pagecolor="#ffffff"
     bordercolor="#666666"
     borderopacity="1"
     objecttolerance="10"
     gridtolerance="10"
     guidetolerance="10"
     inkscape:pageopacity="0"
     inkscape:pageshadow="2"
     inkscape:window-width="1863"
     inkscape:window-height="1021"
     id="namedview4498"
     showgrid="false"
     inkscape:zoom="17.3125"
     inkscape:cx="24"
     inkscape:cy="24"
     inkscape:window-x="57"
     inkscape:window-y="31"
     inkscape:window-maximized="1"
     inkscape:current-layer="svg4451" />
  <defs
     id="defs4453">
    <linearGradient
       id="linearGradient5477"
       osb:paint="solid">
      <stop
         style="stop-color:#a20000;stop-opacity:0.99502486;"
         offset="0"
         id="stop5479" />
    </linearGradient>
    <linearGradient
       id="linearGradient3764"
       x1="1"
       x2="47"
       gradientUnits="userSpaceOnUse"
       gradientTransform="matrix(0,-1,1,0,-1.5e-6,47.999998)">
      <stop
         style="stop-color:#e6a712;stop-opacity:1"
         id="stop4456" />
      <stop
         offset="1"
         style="stop-color:#edb020;stop-opacity:1"
         id="stop4458" />
    </linearGradient>
  </defs>
  <g
     id="g4460">
    <path
       d="m 36.31 5 c 5.859 4.062 9.688 10.831 9.688 18.5 c 0 12.426 -10.07 22.5 -22.5 22.5 c -7.669 0 -14.438 -3.828 -18.5 -9.688 c 1.037 1.822 2.306 3.499 3.781 4.969 c 4.085 3.712 9.514 5.969 15.469 5.969 c 12.703 0 23 -10.298 23 -23 c 0 -5.954 -2.256 -11.384 -5.969 -15.469 c -1.469 -1.475 -3.147 -2.744 -4.969 -3.781 z m 4.969 3.781 c 3.854 4.113 6.219 9.637 6.219 15.719 c 0 12.703 -10.297 23 -23 23 c -6.081 0 -11.606 -2.364 -15.719 -6.219 c 4.16 4.144 9.883 6.719 16.219 6.719 c 12.703 0 23 -10.298 23 -23 c 0 -6.335 -2.575 -12.06 -6.719 -16.219 z"
       style="opacity:0.05"
       id="path4462" />
    <path
       d="m 41.28 8.781 c 3.712 4.085 5.969 9.514 5.969 15.469 c 0 12.703 -10.297 23 -23 23 c -5.954 0 -11.384 -2.256 -15.469 -5.969 c 4.113 3.854 9.637 6.219 15.719 6.219 c 12.703 0 23 -10.298 23 -23 c 0 -6.081 -2.364 -11.606 -6.219 -15.719 z"
       style="opacity:0.1"
       id="path4464" />
    <path
       d="m 31.25 2.375 c 8.615 3.154 14.75 11.417 14.75 21.13 c 0 12.426 -10.07 22.5 -22.5 22.5 c -9.708 0 -17.971 -6.135 -21.12 -14.75 a 23 23 0 0 0 44.875 -7 a 23 23 0 0 0 -16 -21.875 z"
       style="opacity:0.2"
       id="path4466" />
  </g>
  <g
     id="g4468"
     style="fill-opacity:1;fill:#f2f2f2;opacity:0.80718954">
    <path
       d="m 24 1 c 12.703 0 23 10.297 23 23 c 0 12.703 -10.297 23 -23 23 -12.703 0 -23 -10.297 -23 -23 0 -12.703 10.297 -23 23 -23 z"
       style="fill:#f2f2f2;fill-opacity:1"
       id="path4470" />
  </g>
  <g
     id="g4494">
    <path
       d="m 40.03 7.531 c 3.712 4.084 5.969 9.514 5.969 15.469 0 12.703 -10.297 23 -23 23 c -5.954 0 -11.384 -2.256 -15.469 -5.969 4.178 4.291 10.01 6.969 16.469 6.969 c 12.703 0 23 -10.298 23 -23 0 -6.462 -2.677 -12.291 -6.969 -16.469 z"
       style="opacity:0.1"
       id="path4496" />
  </g>
  <g
     transform="matrix(1.4087125,0,0,1.5101436,-9.494227,-12.632866)"
     id="g4885"
     style="fill:#666666">
    <g
       id="g4887"
       style="fill:#666666">
      <!-- color: #e54e35 -->
      <g
         id="g4889"
         style="fill:#666666">
        <path
           inkscape:connector-curvature="0"
           d="m 24,11.984 c -7.18,0 -13,5.188 -13,11.586 0,3.859 2.129,7.258 5.383,9.352 -0.117,0.441 -0.27,0.91 -0.508,1.395 -0.809,1.656 -1.625,1.656 -1.625,1.656 0,0 2.438,0 4.063,-0.828 0.344,-0.176 0.645,-0.461 0.918,-0.801 1.48,0.523 3.07,0.801 4.773,0.801 7.18,0 13,-5.188 13,-11.59 0,-6.395 -5.82,-11.586 -13,-11.586 m -4.445,4.156 4.441,4.551 4.441,-4.551 2.871,2.922 -4.441,4.523 4.441,4.555 L 28.441,31.02 24,26.497 19.559,31.02 16.688,28.125 21.129,23.57 16.688,19.047 m 2.871,-2.922"
           style="fill:#666666;fill-opacity:1;fill-rule:nonzero;stroke:none"
           id="path4891" />
      </g>
    </g>
  </g>
</svg>
