<?xml version="1.0" encoding="UTF-8" standalone="no"?>
<svg
   xmlns:dc="http://purl.org/dc/elements/1.1/"
   xmlns:cc="http://creativecommons.org/ns#"
   xmlns:rdf="http://www.w3.org/1999/02/22-rdf-syntax-ns#"
   xmlns:svg="http://www.w3.org/2000/svg"
   xmlns="http://www.w3.org/2000/svg"
   xmlns:sodipodi="http://sodipodi.sourceforge.net/DTD/sodipodi-0.dtd"
   xmlns:inkscape="http://www.inkscape.org/namespaces/inkscape"
   viewBox="0 0 48 48"
   id="svg2"
   version="1.1"
   inkscape:version="0.91 r13725"
   sodipodi:docname="java.svg">
  <metadata
     id="metadata69">
    <rdf:RDF>
      <cc:Work
         rdf:about="">
        <dc:format>image/svg+xml</dc:format>
        <dc:type
           rdf:resource="http://purl.org/dc/dcmitype/StillImage" />
      </cc:Work>
    </rdf:RDF>
  </metadata>
  <sodipodi:namedview
     pagecolor="#ffffff"
     bordercolor="#666666"
     borderopacity="1"
     objecttolerance="10"
     gridtolerance="10"
     guidetolerance="10"
     inkscape:pageopacity="0"
     inkscape:pageshadow="2"
     inkscape:window-width="749"
     inkscape:window-height="480"
     id="namedview67"
     showgrid="false"
     inkscape:zoom="4.9166667"
     inkscape:cx="-5.5932203"
     inkscape:cy="24"
     inkscape:window-x="57"
     inkscape:window-y="31"
     inkscape:window-maximized="0"
     inkscape:current-layer="svg2" />
  <defs
     id="defs4">
    <linearGradient
       id="linearGradient3764"
       x1="1"
       x2="47"
       gradientUnits="userSpaceOnUse"
       gradientTransform="matrix(0,-1,1,0,-1.5e-6,47.999998)">
      <stop
         style="stop-color:#e4e4e4;stop-opacity:1"
         id="stop7" />
      <stop
         offset="1"
         style="stop-color:#eee;stop-opacity:1"
         id="stop9" />
    </linearGradient>
  </defs>
  <g
     id="g11">
    <path
       d="m 36.31 5 c 5.859 4.062 9.688 10.831 9.688 18.5 c 0 12.426 -10.07 22.5 -22.5 22.5 c -7.669 0 -14.438 -3.828 -18.5 -9.688 c 1.037 1.822 2.306 3.499 3.781 4.969 c 4.085 3.712 9.514 5.969 15.469 5.969 c 12.703 0 23 -10.298 23 -23 c 0 -5.954 -2.256 -11.384 -5.969 -15.469 c -1.469 -1.475 -3.147 -2.744 -4.969 -3.781 z m 4.969 3.781 c 3.854 4.113 6.219 9.637 6.219 15.719 c 0 12.703 -10.297 23 -23 23 c -6.081 0 -11.606 -2.364 -15.719 -6.219 c 4.16 4.144 9.883 6.719 16.219 6.719 c 12.703 0 23 -10.298 23 -23 c 0 -6.335 -2.575 -12.06 -6.719 -16.219 z"
       style="opacity:0.05"
       id="path13" />
    <path
       d="m 41.28 8.781 c 3.712 4.085 5.969 9.514 5.969 15.469 c 0 12.703 -10.297 23 -23 23 c -5.954 0 -11.384 -2.256 -15.469 -5.969 c 4.113 3.854 9.637 6.219 15.719 6.219 c 12.703 0 23 -10.298 23 -23 c 0 -6.081 -2.364 -11.606 -6.219 -15.719 z"
       style="opacity:0.1"
       id="path15" />
    <path
       d="m 31.25 2.375 c 8.615 3.154 14.75 11.417 14.75 21.13 c 0 12.426 -10.07 22.5 -22.5 22.5 c -9.708 0 -17.971 -6.135 -21.12 -14.75 a 23 23 0 0 0 44.875 -7 a 23 23 0 0 0 -16 -21.875 z"
       style="opacity:0.2"
       id="path17" />
  </g>
  <g
     id="g19"
     style="fill:#e6e6e6;fill-opacity:1">
    <path
       d="m 24 1 c 12.703 0 23 10.297 23 23 c 0 12.703 -10.297 23 -23 23 -12.703 0 -23 -10.297 -23 -23 0 -12.703 10.297 -23 23 -23 z"
       style="fill:#e6e6e6;fill-opacity:1"
       id="path21" />
  </g>
  <g
     id="g23">
    <g
       id="g25">
      <g
         transform="translate(1,1)"
         id="g27">
        <g
           style="opacity:0.1"
           id="g29">
          <!-- color: #eeeeee -->
          <g
             id="g31">
            <path
               d="m 25.26 23.438 c 1.309 1.441 -0.352 2.742 -0.352 2.742 c 0 0 3.324 -1.648 1.805 -3.703 c -1.434 -1.922 -2.523 -2.871 3.395 -6.172 c 0 0 -9.285 2.223 -4.852 7.121"
               style="fill:#000;fill-opacity:1;stroke:none;fill-rule:evenodd"
               id="path33" />
            <path
               d="m 32.28 33.21 c 0 0 0.77 0.605 -0.844 1.074 c -3.066 0.887 -12.754 1.156 -15.445 0.031 c -0.965 -0.402 0.848 -0.957 1.418 -1.078 c 0.598 -0.125 0.934 -0.102 0.934 -0.102 c -1.07 -0.73 -6.953 1.43 -2.984 2.043 c 10.824 1.684 19.73 -0.758 16.922 -1.969"
               style="fill:#000;fill-opacity:1;stroke:none;fill-rule:evenodd"
               id="path35" />
            <path
               d="m 20.938 25.309 c 0 0 -4.93 1.121 -1.746 1.531 c 1.348 0.172 4.02 0.133 6.52 -0.066 c 2.043 -0.164 4.09 -0.516 4.09 -0.516 c 0 0 -0.723 0.297 -1.242 0.637 c -5 1.262 -14.668 0.672 -11.891 -0.617 c 2.355 -1.09 4.27 -0.965 4.27 -0.965"
               style="fill:#000;fill-opacity:1;stroke:none;fill-rule:evenodd"
               id="path37" />
            <path
               d="m 29.781 30.05 c 5.086 -2.535 2.734 -4.969 1.094 -4.641 c -0.402 0.082 -0.582 0.148 -0.582 0.148 c 0 0 0.145 -0.223 0.43 -0.32 c 3.254 -1.094 5.746 3.23 -1.047 4.941 c 0 0 0.078 -0.066 0.102 -0.129"
               style="fill:#000;fill-opacity:1;stroke:none;fill-rule:evenodd"
               id="path39" />
            <path
               d="m 26.711 11 c 0 0 2.816 2.703 -2.676 6.859 c -4.398 3.332 -1 5.234 0 7.402 c -2.566 -2.219 -4.453 -4.176 -3.188 -6 c 1.855 -2.672 7 -3.965 5.863 -8.258"
               style="fill:#000;fill-opacity:1;stroke:none;fill-rule:evenodd"
               id="path41" />
            <path
               d="m 21.438 36.918 c 4.883 0.301 12.383 -0.168 12.563 -2.379 c 0 0 -0.344 0.836 -4.04 1.504 c -4.168 0.75 -9.309 0.664 -12.359 0.184 c 0 0 0.625 0.492 3.836 0.691"
               style="fill:#000;fill-opacity:1;stroke:none;fill-rule:evenodd"
               id="path43" />
          </g>
        </g>
      </g>
    </g>
  </g>
  <g
     id="g45">
    <g
       id="g47">
      <!-- color: #eeeeee -->
      <g
         id="g49">
        <path
           d="m 25.26 23.438 c 1.309 1.441 -0.352 2.742 -0.352 2.742 c 0 0 3.324 -1.648 1.805 -3.703 c -1.434 -1.922 -2.523 -2.871 3.395 -6.172 c 0 0 -9.285 2.223 -4.852 7.121"
           style="fill:#ff7f28;fill-opacity:1;stroke:none;fill-rule:evenodd"
           id="path51" />
        <path
           d="m 32.28 33.21 c 0 0 0.77 0.605 -0.844 1.074 c -3.066 0.887 -12.754 1.156 -15.445 0.031 c -0.965 -0.402 0.848 -0.957 1.418 -1.078 c 0.598 -0.125 0.934 -0.102 0.934 -0.102 c -1.07 -0.73 -6.953 1.43 -2.984 2.043 c 10.824 1.684 19.73 -0.758 16.922 -1.969"
           style="fill:#3434c8;fill-opacity:1;stroke:none;fill-rule:evenodd"
           id="path53" />
        <path
           d="m 20.938 25.309 c 0 0 -4.93 1.121 -1.746 1.531 c 1.348 0.172 4.02 0.133 6.52 -0.066 c 2.043 -0.164 4.09 -0.516 4.09 -0.516 c 0 0 -0.723 0.297 -1.242 0.637 c -5 1.262 -14.668 0.672 -11.891 -0.617 c 2.355 -1.09 4.27 -0.965 4.27 -0.965"
           style="fill:#3434c8;fill-opacity:1;stroke:none;fill-rule:evenodd"
           id="path55" />
        <path
           d="m 29.781 30.05 c 5.086 -2.535 2.734 -4.969 1.094 -4.641 c -0.402 0.082 -0.582 0.148 -0.582 0.148 c 0 0 0.145 -0.223 0.43 -0.32 c 3.254 -1.094 5.746 3.23 -1.047 4.941 c 0 0 0.078 -0.066 0.102 -0.129"
           style="fill:#3434c8;fill-opacity:1;stroke:none;fill-rule:evenodd"
           id="path57" />
        <path
           d="m 26.711 11 c 0 0 2.816 2.703 -2.676 6.859 c -4.398 3.332 -1 5.234 0 7.402 c -2.566 -2.219 -4.453 -4.176 -3.188 -6 c 1.855 -2.672 7 -3.965 5.863 -8.258"
           style="fill:#ff7f28;fill-opacity:1;stroke:none;fill-rule:evenodd"
           id="path59" />
        <path
           d="m 21.438 36.918 c 4.883 0.301 12.383 -0.168 12.563 -2.379 c 0 0 -0.344 0.836 -4.04 1.504 c -4.168 0.75 -9.309 0.664 -12.359 0.184 c 0 0 0.625 0.492 3.836 0.691"
           style="fill:#3434c8;fill-opacity:1;stroke:none;fill-rule:evenodd"
           id="path61" />
      </g>
    </g>
  </g>
  <g
     id="g63">
    <path
       d="m 40.03 7.531 c 3.712 4.084 5.969 9.514 5.969 15.469 0 12.703 -10.297 23 -23 23 c -5.954 0 -11.384 -2.256 -15.469 -5.969 4.178 4.291 10.01 6.969 16.469 6.969 c 12.703 0 23 -10.298 23 -23 0 -6.462 -2.677 -12.291 -6.969 -16.469 z"
       style="opacity:0.1"
       id="path65" />
  </g>
</svg>
