<?xml version="1.0" encoding="UTF-8" standalone="no"?>
<svg
   xmlns:dc="http://purl.org/dc/elements/1.1/"
   xmlns:cc="http://creativecommons.org/ns#"
   xmlns:rdf="http://www.w3.org/1999/02/22-rdf-syntax-ns#"
   xmlns:svg="http://www.w3.org/2000/svg"
   xmlns="http://www.w3.org/2000/svg"
   xmlns:sodipodi="http://sodipodi.sourceforge.net/DTD/sodipodi-0.dtd"
   xmlns:inkscape="http://www.inkscape.org/namespaces/inkscape"
   viewBox="0 0 48 48"
   id="svg4520"
   version="1.1"
   inkscape:version="0.91 r13725"
   sodipodi:docname="libreoffice3-math.svg">
  <metadata
     id="metadata4585">
    <rdf:RDF>
      <cc:Work
         rdf:about="">
        <dc:format>image/svg+xml</dc:format>
        <dc:type
           rdf:resource="http://purl.org/dc/dcmitype/StillImage" />
      </cc:Work>
    </rdf:RDF>
  </metadata>
  <sodipodi:namedview
     pagecolor="#ffffff"
     bordercolor="#666666"
     borderopacity="1"
     objecttolerance="10"
     gridtolerance="10"
     guidetolerance="10"
     inkscape:pageopacity="0"
     inkscape:pageshadow="2"
     inkscape:window-width="1863"
     inkscape:window-height="1021"
     id="namedview4583"
     showgrid="false"
     inkscape:zoom="4.9166667"
     inkscape:cx="24"
     inkscape:cy="24"
     inkscape:window-x="57"
     inkscape:window-y="31"
     inkscape:window-maximized="1"
     inkscape:current-layer="svg4520" />
  <defs
     id="defs4522">
    <linearGradient
       id="linearGradient3764"
       x1="1"
       x2="47"
       gradientUnits="userSpaceOnUse"
       gradientTransform="matrix(0,-1,1,0,-1.5e-6,47.999998)">
      <stop
         style="stop-color:#e04c8b;stop-opacity:1"
         id="stop4525" />
      <stop
         offset="1"
         style="stop-color:#e35e97;stop-opacity:1"
         id="stop4527" />
    </linearGradient>
  </defs>
  <g
     id="g4529">
    <path
       d="m 36.31 5 c 5.859 4.062 9.688 10.831 9.688 18.5 c 0 12.426 -10.07 22.5 -22.5 22.5 c -7.669 0 -14.438 -3.828 -18.5 -9.688 c 1.037 1.822 2.306 3.499 3.781 4.969 c 4.085 3.712 9.514 5.969 15.469 5.969 c 12.703 0 23 -10.298 23 -23 c 0 -5.954 -2.256 -11.384 -5.969 -15.469 c -1.469 -1.475 -3.147 -2.744 -4.969 -3.781 z m 4.969 3.781 c 3.854 4.113 6.219 9.637 6.219 15.719 c 0 12.703 -10.297 23 -23 23 c -6.081 0 -11.606 -2.364 -15.719 -6.219 c 4.16 4.144 9.883 6.719 16.219 6.719 c 12.703 0 23 -10.298 23 -23 c 0 -6.335 -2.575 -12.06 -6.719 -16.219 z"
       style="opacity:0.05"
       id="path4531" />
    <path
       d="m 41.28 8.781 c 3.712 4.085 5.969 9.514 5.969 15.469 c 0 12.703 -10.297 23 -23 23 c -5.954 0 -11.384 -2.256 -15.469 -5.969 c 4.113 3.854 9.637 6.219 15.719 6.219 c 12.703 0 23 -10.298 23 -23 c 0 -6.081 -2.364 -11.606 -6.219 -15.719 z"
       style="opacity:0.1"
       id="path4533" />
    <path
       d="m 31.25 2.375 c 8.615 3.154 14.75 11.417 14.75 21.13 c 0 12.426 -10.07 22.5 -22.5 22.5 c -9.708 0 -17.971 -6.135 -21.12 -14.75 a 23 23 0 0 0 44.875 -7 a 23 23 0 0 0 -16 -21.875 z"
       style="opacity:0.2"
       id="path4535" />
  </g>
  <g
     id="g4537">
    <path
       d="m 24 1 c 12.703 0 23 10.297 23 23 c 0 12.703 -10.297 23 -23 23 -12.703 0 -23 -10.297 -23 -23 0 -12.703 10.297 -23 23 -23 z"
       style="fill:#e6e6e6;fill-opacity:1"
       id="path4539" />
  </g>
  <g
     id="g4541">
    <g
       id="g4543">
      <g
         transform="translate(1,1)"
         id="g4545">
        <g
           style="opacity:0.1"
           id="g4547">
          <!-- color: #e35e97 -->
          <g
             id="g4549">
            <path
               d="m 13.887 11 l 20.227 0 c 0.492 0 0.887 0.395 0.887 0.883 l 0 24.23 c 0 0.488 -0.395 0.887 -0.887 0.887 l -20.227 0 c -0.488 0 -0.887 -0.398 -0.887 -0.887 l 0 -24.23 c 0 -0.488 0.398 -0.883 0.887 -0.883 m 0 0"
               style="fill:#000;fill-opacity:1;stroke:none;fill-rule:nonzero"
               id="path4551" />
          </g>
        </g>
      </g>
    </g>
  </g>
  <g
     id="g4553">
    <g
       id="g4555">
      <!-- color: #e35e97 -->
      <g
         id="g4557">
        <path
           d="m 13.887,11 20.227,0 c 0.492,0 0.887,0.395 0.887,0.883 l 0,24.23 C 35.001,36.601 34.606,37 34.114,37 L 13.887,37 C 13.399,37 13,36.602 13,36.113 l 0,-24.23 C 13,11.395 13.398,11 13.887,11 m 0,0"
           style="fill:#ffffff;fill-opacity:0.42288557;stroke:#000000;fill-rule:nonzero;stroke-opacity:0.16915423"
           id="path4559" />
        <path
           d="m 15.441,31 3.113,0 c 0.246,0 0.445,0.199 0.445,0.441 l 0,3.117 c 0,0.242 -0.199,0.441 -0.445,0.441 l -3.113,0 C 15.195,34.999 15,34.8 15,34.558 l 0,-3.117 C 15,31.199 15.195,31 15.441,31 m 0,0"
           style="fill:#959a9b;fill-opacity:1;stroke:none;fill-rule:nonzero"
           id="path4561" />
        <path
           d="m 15.441,25.02 3.113,0 c 0.246,0 0.445,0.199 0.445,0.441 l 0,3.117 c 0,0.242 -0.199,0.441 -0.445,0.441 l -3.113,0 C 15.195,29.019 15,28.82 15,28.578 l 0,-3.117 c 0,-0.242 0.195,-0.441 0.441,-0.441 m 0,0"
           style="fill:#959a9b;fill-opacity:1;stroke:none;fill-rule:nonzero"
           id="path4563" />
        <path
           d="m 15.441,19 3.113,0 c 0.246,0 0.445,0.199 0.445,0.441 l 0,3.117 c 0,0.242 -0.199,0.441 -0.445,0.441 l -3.113,0 C 15.195,22.999 15,22.8 15,22.558 l 0,-3.117 C 15,19.199 15.195,19 15.441,19 m 0,0"
           style="fill:#959a9b;fill-opacity:1;stroke:none;fill-rule:nonzero"
           id="path4565" />
        <path
           d="m 15.441,13 17.11,0 c 0.246,0 0.445,0.199 0.445,0.441 l 0,3.117 c 0,0.242 -0.199,0.441 -0.445,0.441 l -17.11,0 C 15.195,16.999 15,16.8 15,16.558 l 0,-3.117 C 15,13.199 15.195,13 15.441,13 m 0,0"
           style="fill:#76a3cf;fill-opacity:1;stroke:none;fill-rule:nonzero"
           id="path4567" />
        <path
           d="m 22.441,31 3.117,0 c 0.242,0 0.441,0.199 0.441,0.441 l 0,3.117 c 0,0.242 -0.199,0.441 -0.441,0.441 l -3.117,0 C 22.199,34.999 22,34.8 22,34.558 l 0,-3.117 C 22,31.199 22.199,31 22.441,31 m 0,0"
           style="fill:#959a9b;fill-opacity:1;stroke:none;fill-rule:nonzero"
           id="path4569" />
        <path
           d="m 22.441,25.02 3.117,0 c 0.242,0 0.441,0.199 0.441,0.441 l 0,3.117 c 0,0.242 -0.199,0.441 -0.441,0.441 l -3.117,0 C 22.199,29.019 22,28.82 22,28.578 l 0,-3.117 c 0,-0.242 0.199,-0.441 0.441,-0.441 m 0,0"
           style="fill:#959a9b;fill-opacity:1;stroke:none;fill-rule:nonzero"
           id="path4571" />
        <path
           d="m 22.441,19 3.117,0 c 0.242,0 0.441,0.199 0.441,0.441 l 0,3.117 c 0,0.242 -0.199,0.441 -0.441,0.441 l -3.117,0 C 22.199,22.999 22,22.8 22,22.558 l 0,-3.117 C 22,19.199 22.199,19 22.441,19 m 0,0"
           style="fill:#959a9b;fill-opacity:1;stroke:none;fill-rule:nonzero"
           id="path4573" />
        <path
           d="m 29.441,19 3.113,0 c 0.246,0 0.445,0.199 0.445,0.441 l 0,3.117 c 0,0.242 -0.199,0.441 -0.445,0.441 l -3.113,0 C 29.195,22.999 29,22.8 29,22.558 l 0,-3.117 C 29,19.199 29.195,19 29.441,19 m 0,0"
           style="fill:#959a9b;fill-opacity:1;stroke:none;fill-rule:nonzero"
           id="path4575" />
        <path
           d="m 29.441,25.02 3.113,0 c 0.246,0 0.445,0.199 0.445,0.441 l 0,9.113 c 0,0.246 -0.199,0.445 -0.445,0.445 l -3.113,0 C 29.195,35.019 29,34.82 29,34.574 l 0,-9.113 c 0,-0.242 0.195,-0.441 0.441,-0.441 m 0,0"
           style="fill:#ec7f20;fill-opacity:1;stroke:none;fill-rule:nonzero"
           id="path4577" />
      </g>
    </g>
  </g>
  <g
     id="g4579">
    <path
       d="m 40.03 7.531 c 3.712 4.084 5.969 9.514 5.969 15.469 0 12.703 -10.297 23 -23 23 c -5.954 0 -11.384 -2.256 -15.469 -5.969 4.178 4.291 10.01 6.969 16.469 6.969 c 12.703 0 23 -10.298 23 -23 0 -6.462 -2.677 -12.291 -6.969 -16.469 z"
       style="opacity:0.1"
       id="path4581" />
  </g>
</svg>
