<?xml version="1.0" encoding="UTF-8" standalone="no"?>
<svg
   xmlns:dc="http://purl.org/dc/elements/1.1/"
   xmlns:cc="http://creativecommons.org/ns#"
   xmlns:rdf="http://www.w3.org/1999/02/22-rdf-syntax-ns#"
   xmlns:svg="http://www.w3.org/2000/svg"
   xmlns="http://www.w3.org/2000/svg"
   xmlns:sodipodi="http://sodipodi.sourceforge.net/DTD/sodipodi-0.dtd"
   xmlns:inkscape="http://www.inkscape.org/namespaces/inkscape"
   viewBox="0 0 48 48"
   id="svg2"
   version="1.1"
   inkscape:version="0.92.1 r"
   sodipodi:docname="time.svg">
  <metadata
     id="metadata61">
    <rdf:RDF>
      <cc:Work
         rdf:about="">
        <dc:format>image/svg+xml</dc:format>
        <dc:type
           rdf:resource="http://purl.org/dc/dcmitype/StillImage" />
      </cc:Work>
    </rdf:RDF>
  </metadata>
  <sodipodi:namedview
     pagecolor="#ffffff"
     bordercolor="#666666"
     borderopacity="1"
     objecttolerance="10"
     gridtolerance="10"
     guidetolerance="10"
     inkscape:pageopacity="0"
     inkscape:pageshadow="2"
     inkscape:window-width="1920"
     inkscape:window-height="1052"
     id="namedview59"
     showgrid="false"
     inkscape:zoom="13.906433"
     inkscape:cx="33.46623"
     inkscape:cy="24.953526"
     inkscape:window-x="1920"
     inkscape:window-y="0"
     inkscape:window-maximized="1"
     inkscape:current-layer="svg2" />
  <defs
     id="defs4">
    <linearGradient
       id="linearGradient3764"
       x1="1"
       x2="47"
       gradientUnits="userSpaceOnUse"
       gradientTransform="matrix(0,-1,1,0,-1.5e-6,47.999998)">
      <stop
         style="stop-color:#18aa86;stop-opacity:1"
         id="stop7" />
      <stop
         offset="1"
         style="stop-color:#1abc95;stop-opacity:1"
         id="stop9" />
    </linearGradient>
  </defs>
  <g
     id="g11">
    <path
       d="m 36.31 5 c 5.859 4.062 9.688 10.831 9.688 18.5 c 0 12.426 -10.07 22.5 -22.5 22.5 c -7.669 0 -14.438 -3.828 -18.5 -9.688 c 1.037 1.822 2.306 3.499 3.781 4.969 c 4.085 3.712 9.514 5.969 15.469 5.969 c 12.703 0 23 -10.298 23 -23 c 0 -5.954 -2.256 -11.384 -5.969 -15.469 c -1.469 -1.475 -3.147 -2.744 -4.969 -3.781 z m 4.969 3.781 c 3.854 4.113 6.219 9.637 6.219 15.719 c 0 12.703 -10.297 23 -23 23 c -6.081 0 -11.606 -2.364 -15.719 -6.219 c 4.16 4.144 9.883 6.719 16.219 6.719 c 12.703 0 23 -10.298 23 -23 c 0 -6.335 -2.575 -12.06 -6.719 -16.219 z"
       style="opacity:0.05"
       id="path13" />
    <path
       d="m 41.28 8.781 c 3.712 4.085 5.969 9.514 5.969 15.469 c 0 12.703 -10.297 23 -23 23 c -5.954 0 -11.384 -2.256 -15.469 -5.969 c 4.113 3.854 9.637 6.219 15.719 6.219 c 12.703 0 23 -10.298 23 -23 c 0 -6.081 -2.364 -11.606 -6.219 -15.719 z"
       style="opacity:0.1"
       id="path15" />
    <path
       d="m 31.25 2.375 c 8.615 3.154 14.75 11.417 14.75 21.13 c 0 12.426 -10.07 22.5 -22.5 22.5 c -9.708 0 -17.971 -6.135 -21.12 -14.75 a 23 23 0 0 0 44.875 -7 a 23 23 0 0 0 -16 -21.875 z"
       style="opacity:0.2"
       id="path17" />
  </g>
  <g
     id="g19"
     transform="translate(0,-0.61016949)"
     style="fill:#ececec;fill-opacity:1">
    <path
       d="M 24,1 C 36.703,1 47,11.297 47,24 47,36.703 36.703,47 24,47 11.297,47 1,36.703 1,24 1,11.297 11.297,1 24,1 Z"
       style="fill:#ececec;fill-opacity:1"
       id="path21"
       inkscape:connector-curvature="0" />
  </g>
  <g
     id="g55">
    <path
       d="m 40.03 7.531 c 3.712 4.084 5.969 9.514 5.969 15.469 0 12.703 -10.297 23 -23 23 c -5.954 0 -11.384 -2.256 -15.469 -5.969 4.178 4.291 10.01 6.969 16.469 6.969 c 12.703 0 23 -10.298 23 -23 0 -6.462 -2.677 -12.291 -6.969 -16.469 z"
       style="opacity:0.1"
       id="path57" />
  </g>
  <g
     id="g11147"
     transform="matrix(0.12034908,0,0,0.12115919,3.4719567,3.2536048)"
     style="fill:#404552;fill-opacity:1">
    <g
       id="g11089"
       style="fill:#404552;fill-opacity:1">
      <path
         id="path11083"
         d="M 168.611,0 C 75.489,0 0,75.489 0,168.611 c 0,93.122 75.489,168.611 168.611,168.611 93.122,0 168.611,-75.489 168.611,-168.611 C 337.222,75.489 261.733,0 168.611,0 Z m 0,304.588 c -74.978,0 -135.977,-60.999 -135.977,-135.977 0,-74.978 60.999,-135.977 135.977,-135.977 74.978,0 135.977,60.999 135.977,135.977 0,74.978 -61,135.977 -135.977,135.977 z"
         style="fill:#404552;fill-opacity:1"
         inkscape:connector-curvature="0" />
      <path
         id="path11085"
         d="m 166.299,249.751 h 21.783 v 36.132 H 166.299 Z M 53.194,151.483 h 36.279 v 27.195 H 53.194 c 0,0.001 0,-27.195 0,-27.195 z m 199.717,65.188 19.847,11.46 c 1.773,-3.155 3.399,-6.407 4.884,-9.73 l -19.287,-11.145 z m -36.061,31.965 13.745,23.616 c 3.095,-1.925 6.108,-3.971 9.007,-6.162 l -13.353,-22.931 z m -98.534,23.676 -9.399,-5.472 13.788,-23.682 9.399,5.477 z m -46.042,-41.902 -5.439,-9.415 23.774,-13.728 5.439,9.415 z m 18.341,-107.503 -23.774,-13.734 5.439,-9.42 23.774,13.734 z m 32.096,-35.898 -13.788,-23.676 9.399,-5.472 13.788,23.676 z"
         style="fill:#404552;fill-opacity:1"
         inkscape:connector-curvature="0" />
      <path
         id="path11087"
         d="M 166.299,46.64 V 168.611 H 288.27 C 288.27,101.248 233.662,46.64 166.299,46.64 Z m 33.978,97.903 c 0,3.432 -2.382,6.217 -5.325,6.217 -2.932,0 -5.319,-2.785 -5.319,-6.217 v -23.997 c 0,-3.432 -2.779,-6.217 -6.211,-6.217 -3.437,0 -6.217,-1.583 -6.217,-3.535 0,-1.953 1.539,-3.584 3.443,-3.742 1.496,-0.125 2.638,-0.272 3.432,-0.446 2.083,-0.462 3.775,-1.387 5.091,-2.768 0.892,-0.946 1.572,-2.208 2.029,-3.791 0.114,-0.392 0.201,-0.745 0.267,-1.05 0.114,-0.582 2.078,-1.061 4.471,-1.061 2.388,0 4.335,2.785 4.335,6.217 v 40.391 h 0.004 z m 47.043,1.844 c -3.133,3.84 -7.821,5.755 -14.055,5.755 -5.02,0 -9.148,-1.349 -12.374,-4.047 -1.757,-1.474 -3.095,-3.285 -4.003,-5.434 -1.338,-3.166 0.941,-6.037 3.796,-6.037 2.85,0 5.347,1.305 5.978,2.785 0.408,0.968 0.93,1.779 1.556,2.442 1.164,1.224 2.861,1.838 5.086,1.838 2.573,0 4.525,-0.903 5.874,-2.714 1.349,-1.811 2.018,-4.085 2.018,-6.831 0,-2.698 -0.626,-4.971 -1.887,-6.831 -1.256,-1.86 -3.225,-2.785 -5.891,-2.785 -1.262,0 -2.35,0.158 -3.274,0.473 -0.81,0.294 -1.528,0.713 -2.148,1.262 -1.039,0.919 -3.606,1.882 -6.173,1.762 -2.573,-0.12 -4.302,-2.981 -3.867,-6.385 l 2.138,-16.845 c 0.435,-3.405 3.568,-6.168 7,-6.168 h 16.627 c 3.432,0 6.222,1.974 6.222,4.406 0,2.431 -2.79,4.406 -6.222,4.406 h -9.138 c -3.432,0 -6.641,2.584 -7.158,5.776 -0.528,3.187 -0.152,5.238 0.881,4.65 0.756,-0.435 1.403,-0.756 1.925,-0.952 1.496,-0.56 3.334,-0.838 5.493,-0.838 4.368,0 8.175,1.469 11.422,4.406 3.258,2.937 4.873,7.212 4.873,12.825 -0.011,4.884 -1.577,9.246 -4.699,13.081 z"
         style="fill:#404552;fill-opacity:1"
         inkscape:connector-curvature="0" />
    </g>
    <g
       id="g11091"
       style="fill:#404552;fill-opacity:1" />
    <g
       id="g11093"
       style="fill:#404552;fill-opacity:1" />
    <g
       id="g11095"
       style="fill:#404552;fill-opacity:1" />
    <g
       id="g11097"
       style="fill:#404552;fill-opacity:1" />
    <g
       id="g11099"
       style="fill:#404552;fill-opacity:1" />
    <g
       id="g11101"
       style="fill:#404552;fill-opacity:1" />
    <g
       id="g11103"
       style="fill:#404552;fill-opacity:1" />
    <g
       id="g11105"
       style="fill:#404552;fill-opacity:1" />
    <g
       id="g11107"
       style="fill:#404552;fill-opacity:1" />
    <g
       id="g11109"
       style="fill:#404552;fill-opacity:1" />
    <g
       id="g11111"
       style="fill:#404552;fill-opacity:1" />
    <g
       id="g11113"
       style="fill:#404552;fill-opacity:1" />
    <g
       id="g11115"
       style="fill:#404552;fill-opacity:1" />
    <g
       id="g11117"
       style="fill:#404552;fill-opacity:1" />
    <g
       id="g11119"
       style="fill:#404552;fill-opacity:1" />
  </g>
</svg>
