<?xml version="1.0" encoding="UTF-8" standalone="no"?>
<svg
   xmlns:osb="http://www.openswatchbook.org/uri/2009/osb"
   xmlns:dc="http://purl.org/dc/elements/1.1/"
   xmlns:cc="http://creativecommons.org/ns#"
   xmlns:rdf="http://www.w3.org/1999/02/22-rdf-syntax-ns#"
   xmlns:svg="http://www.w3.org/2000/svg"
   xmlns="http://www.w3.org/2000/svg"
   xmlns:sodipodi="http://sodipodi.sourceforge.net/DTD/sodipodi-0.dtd"
   xmlns:inkscape="http://www.inkscape.org/namespaces/inkscape"
   viewBox="0 0 48 48"
   id="svg6584"
   version="1.1"
   inkscape:version="0.91 r13725"
   sodipodi:docname="web-whatsapp.svg">
  <metadata
     id="metadata6611">
    <rdf:RDF>
      <cc:Work
         rdf:about="">
        <dc:format>image/svg+xml</dc:format>
        <dc:type
           rdf:resource="http://purl.org/dc/dcmitype/StillImage" />
      </cc:Work>
    </rdf:RDF>
  </metadata>
  <sodipodi:namedview
     pagecolor="#ffffff"
     bordercolor="#666666"
     borderopacity="1"
     objecttolerance="10"
     gridtolerance="10"
     guidetolerance="10"
     inkscape:pageopacity="0"
     inkscape:pageshadow="2"
     inkscape:window-width="1863"
     inkscape:window-height="1021"
     id="namedview6609"
     showgrid="false"
     inkscape:zoom="4.9166667"
     inkscape:cx="-49.118644"
     inkscape:cy="23.084745"
     inkscape:window-x="57"
     inkscape:window-y="31"
     inkscape:window-maximized="1"
     inkscape:current-layer="svg6584" />
  <defs
     id="defs6586">
    <linearGradient
       id="linearGradient22455"
       osb:paint="solid">
      <stop
         style="stop-color:#000000;stop-opacity:0.37128714;"
         offset="0"
         id="stop22457" />
    </linearGradient>
    <linearGradient
       id="linearGradient3764"
       y1="47"
       x2="0"
       y2="1"
       gradientUnits="userSpaceOnUse">
      <stop
         style="stop-color:#67ac5e;stop-opacity:1"
         id="stop6589" />
      <stop
         offset="1"
         style="stop-color:#74b36b;stop-opacity:1"
         id="stop6591" />
    </linearGradient>
  </defs>
  <path
     d="m 36.31,5 c 5.859,4.062 9.688,10.831 9.688,18.5 0,12.426 -10.07,22.5 -22.5,22.5 -7.669,0 -14.438,-3.828 -18.5,-9.688 1.037,1.822 2.306,3.499 3.781,4.969 4.085,3.712 9.514,5.969 15.469,5.969 12.703,0 23,-10.298 23,-23 0,-5.954 -2.256,-11.384 -5.969,-15.469 C 39.81,7.306 38.132,6.037 36.31,5 Z m 4.969,3.781 c 3.854,4.113 6.219,9.637 6.219,15.719 0,12.703 -10.297,23 -23,23 -6.081,0 -11.606,-2.364 -15.719,-6.219 4.16,4.144 9.883,6.719 16.219,6.719 12.703,0 23,-10.298 23,-23 0,-6.335 -2.575,-12.06 -6.719,-16.219 z"
     style="opacity:0.05"
     id="path6593" />
  <path
     d="m 41.28 8.781 c 3.712 4.085 5.969 9.514 5.969 15.469 0 12.703 -10.297 23 -23 23 -5.954 0 -11.384 -2.256 -15.469 -5.969 4.113 3.854 9.637 6.219 15.719 6.219 12.703 0 23 -10.298 23 -23 0 -6.081 -2.364 -11.606 -6.219 -15.719 z"
     style="opacity:0.1"
     id="path6595" />
  <path
     d="M 31.25,2.375 C 39.865,5.529 46,13.792 46,23.505 c 0,12.426 -10.07,22.5 -22.5,22.5 -9.708,0 -17.971,-6.135 -21.12,-14.75 a 23,23 0 0 0 44.875,-7 23,23 0 0 0 -16,-21.875 z"
     style="opacity:0.2"
     id="path6597" />
  <path
     d="M 24,1 C 36.703,1 47,11.297 47,24 47,36.703 36.703,47 24,47 11.297,47 1,36.703 1,24 1,11.297 11.297,1 24,1 Z"
     style="fill:#ececec;fill-opacity:1"
     id="path6599" />
  <path
     d="m 25.675559,9.5215424 0.0025,0.00245 c -7.968565,0 -14.422432,6.1833919 -14.422432,13.8047809 0,2.609112 0.754824,5.051272 2.071347,7.131493 l -2.604015,7.402034 7.979924,-2.449471 c 2.066298,1.094341 4.443109,1.718286 6.971389,1.718286 7.963514,0 14.417382,-6.178517 14.417382,-13.80478 1.6e-5,-7.621398 -6.453852,-13.8047886 -14.417366,-13.8047886 z m 0,2.2020866 c 6.681072,0 12.120094,5.204822 12.120094,11.602693 0,6.402747 -5.439022,11.605131 -12.120094,11.605131 -2.465168,0 -4.75867,-0.704375 -6.670973,-1.918143 l -4.656429,1.428248 1.510909,-4.3079 c -1.449059,-1.913268 -2.307387,-4.265248 -2.307387,-6.807336 0,-6.397871 5.439022,-11.602693 12.12388,-11.602693 z m -4.563021,5.316936 c -0.468294,0 -0.945424,0.132832 -1.23574,0.414339 -0.354692,0.347313 -1.237002,1.156491 -1.237002,2.822375 0,1.665884 1.262247,3.275711 1.440223,3.498722 0.177977,0.229105 2.475267,3.692486 6.039851,5.10733 2.785779,1.10409 3.613813,1.009036 4.249985,0.876204 0.92144,-0.194984 2.085231,-0.846957 2.376811,-1.637855 0.295365,-0.789681 0.295365,-1.466027 0.207008,-1.608608 -0.08836,-0.137707 -0.32566,-0.22423 -0.675302,-0.394841 -0.354691,-0.166953 -2.090281,-0.985881 -2.415941,-1.099214 -0.325659,-0.114553 -0.626073,-0.07677 -0.872212,0.252259 -0.344593,0.45699 -0.675301,0.92373 -0.951733,1.199143 -0.212058,0.219356 -0.556652,0.252259 -0.858328,0.127957 -0.390035,-0.157204 -1.489452,-0.528891 -2.840055,-1.680507 -1.05019,-0.894484 -1.760835,-2.007104 -1.967844,-2.344668 -0.207008,-0.337564 -0.0202,-0.537421 0.142634,-0.723873 0.177978,-0.209607 0.344593,-0.361937 0.522571,-0.55692 0.177977,-0.199857 0.275169,-0.304661 0.395083,-0.533766 0.118651,-0.224229 0.03913,-0.45699 -0.04923,-0.623944 -0.08835,-0.171829 -0.799002,-1.837713 -1.089319,-2.514059 l -0.0025,0.0024 c -0.237303,-0.537421 -0.414017,-0.55692 -0.773757,-0.576418 -0.123701,-0.0049 -0.261286,-0.0098 -0.403919,-0.0098 z"
     style="opacity:0.1;fill:#000000;fill-rule:evenodd"
     id="path6601"
     inkscape:connector-curvature="0" />
  <path
     d="m 25.197354,7.5072405 c -8.354687,0 -15.121283,6.7158995 -15.121283,14.9936355 0,2.833808 0.791401,5.486283 2.171717,7.745653 l -2.7301953,8.039489 8.3692443,-2.660417 c 2.166422,1.188585 4.658403,1.866263 7.309193,1.866263 8.349393,0 15.115987,-6.710605 15.115987,-14.993635 0,-0.485991 -0.02332,-0.966598 -0.06892,-1.440778 C 39.51202,13.455054 33.055225,7.5045934 25.19603,7.5045934 m 0,27.5995136 c -2.58462,0 -4.989255,-0.765037 -6.994221,-2.083333 l -4.884706,1.551249 1.586769,-4.678893 c -1.519275,-2.078037 -2.419194,-4.632568 -2.419194,-7.393577 0,-6.948851 5.702573,-12.6045553 12.711352,-12.6045553 7.004808,0 12.707381,5.6557043 12.707381,12.6045553 0,6.954145 -5.702573,12.604554 -12.707381,12.604554"
     style="fill:#008000;fill-opacity:0.43283584;fill-rule:evenodd;stroke:#3ec500;stroke-width:0.7;stroke-miterlimit:4;stroke-dasharray:none;stroke-opacity:0"
     id="path6603"
     inkscape:connector-curvature="0"
     sodipodi:nodetypes="cscccssscccccsssc" />
  <path
     d="m 22.608955,16.135164 c -0.231677,-0.577665 -0.404203,-0.598623 -0.755416,-0.619581 -0.120769,-0.0052 -0.255093,-0.0105 -0.394346,-0.0105 -0.457193,0 -0.924246,0.142778 -1.207681,0.445364 -0.346284,0.37332 -1.207682,1.243092 -1.207682,3.033721 0,1.790628 1.232328,3.521001 1.406087,3.760712 0.173758,0.246261 2.416595,3.968986 5.89669,5.489775 2.719747,1.186766 3.528155,1.084595 4.149248,0.941816 0.8996,-0.209584 2.035806,-0.910378 2.320475,-1.760501 0.288365,-0.848813 0.288365,-1.575804 0.202102,-1.729063 -0.08626,-0.148018 -0.317941,-0.241021 -0.659297,-0.424406 -0.346284,-0.179456 -2.040735,-1.059706 -2.358676,-1.181527 -0.31794,-0.12313 -0.611234,-0.08252 -0.851538,0.271149 -0.336426,0.49121 -0.659295,0.992901 -0.929176,1.288937 -0.207031,0.235782 -0.543456,0.271149 -0.837983,0.13754 -0.38079,-0.168976 -1.454146,-0.568495 -2.772738,-1.806347 -1.025297,-0.961464 -1.719097,-2.15478 -1.921199,-2.517621 -0.202102,-0.362842 -0.01972,-0.577665 0.139253,-0.778078 0.173757,-0.225303 0.336425,-0.38904 0.510183,-0.598623 0.173759,-0.214823 0.26988,-0.327474 0.385719,-0.573734 0.11584,-0.241022 0.03821,-0.491212 -0.04806,-0.670668 -0.08626,-0.184695 -0.780065,-1.975323 -1.063499,-2.702316 m 0,0"
     style="fill:#008000;fill-opacity:0.48756217;fill-rule:evenodd"
     id="path6605"
     inkscape:connector-curvature="0" />
  <path
     d="m 40.03,7.531 c 3.712,4.084 5.969,9.514 5.969,15.469 0,12.703 -10.297,23 -23,23 C 17.045,46 11.615,43.744 7.53,40.031 11.708,44.322 17.54,47 23.999,47 c 12.703,0 23,-10.298 23,-23 0,-6.462 -2.677,-12.291 -6.969,-16.469 z"
     style="opacity:0.1"
     id="path6607" />
</svg>
