<?xml version="1.0" encoding="UTF-8" standalone="no"?>
<svg
   xmlns:dc="http://purl.org/dc/elements/1.1/"
   xmlns:cc="http://creativecommons.org/ns#"
   xmlns:rdf="http://www.w3.org/1999/02/22-rdf-syntax-ns#"
   xmlns:svg="http://www.w3.org/2000/svg"
   xmlns="http://www.w3.org/2000/svg"
   xmlns:sodipodi="http://sodipodi.sourceforge.net/DTD/sodipodi-0.dtd"
   xmlns:inkscape="http://www.inkscape.org/namespaces/inkscape"
   viewBox="0 0 16 16"
   id="svg2"
   version="1.1"
   inkscape:version="0.91 r13725"
   sodipodi:docname="default-folder.svg">
  <metadata
     id="metadata22">
    <rdf:RDF>
      <cc:Work
         rdf:about="">
        <dc:format>image/svg+xml</dc:format>
        <dc:type
           rdf:resource="http://purl.org/dc/dcmitype/StillImage" />
      </cc:Work>
    </rdf:RDF>
  </metadata>
  <defs
     id="defs20" />
  <sodipodi:namedview
     pagecolor="#ffffff"
     bordercolor="#666666"
     borderopacity="1"
     objecttolerance="10"
     gridtolerance="10"
     guidetolerance="10"
     inkscape:pageopacity="0"
     inkscape:pageshadow="2"
     inkscape:window-width="640"
     inkscape:window-height="480"
     id="namedview18"
     showgrid="false"
     inkscape:zoom="14.75"
     inkscape:cx="8"
     inkscape:cy="8"
     inkscape:current-layer="g4" />
  <g
     transform="translate(0,-1036.3622)"
     id="g4">
    <path
       d="m 0 1037.36 0 13 16 0 0 -7 -1 -5 -5 0 -1 -2 -8 0 c -0.5 0 -1 0.5 -1 1 z"
       style="fill:#ececec;fill-opacity:1;stroke:none"
       id="path6" />
    <path
       d="M 1,0 C 0.5,0 0,0.5 0,1 L 0,2 C 0,1.5 0.5,1 1,1 L 8,1 9,3 15,3 16,8 16,7 15,2 10,2 9,0 z"
       transform="translate(0,1036.3622)"
       style="fill:#ececec;opacity:0.03;fill-opacity:1;stroke:none"
       id="path8" />
    <rect
       width="10"
       height="3"
       x="2"
       y="1039.36"
       style="fill:#4caeec;fill-opacity:1;stroke:none"
       id="rect10" />
    <path
       d="m 16 1039.36 0 13 -16 0 0 -12 7 0 1 -2 7 0 c 0.5 0 1 0.5 1 1 z"
       style="fill:#ececec;fill-opacity:1;stroke:none"
       id="path12" />
    <path
       d="m 0 1051.36 0 1 16 0 0 -1 z"
       style="fill:#000;opacity:0.15;fill-opacity:1;stroke:none"
       id="path14" />
    <path
       d="M 8,2 7,4 0,4 0,5 8,5 9,3 15,3 c 0.5,0 1,0.5 1,1 L 16,3 C 16,2.5 15.5,2 15,2 z"
       transform="translate(0,1036.3622)"
       style="fill:#000;opacity:0.03;fill-opacity:1;stroke:none"
       id="path16" />
  </g>
</svg>
