<?xml version="1.0" encoding="UTF-8" standalone="no"?>
<svg
   xmlns:dc="http://purl.org/dc/elements/1.1/"
   xmlns:cc="http://creativecommons.org/ns#"
   xmlns:rdf="http://www.w3.org/1999/02/22-rdf-syntax-ns#"
   xmlns:svg="http://www.w3.org/2000/svg"
   xmlns="http://www.w3.org/2000/svg"
   xmlns:sodipodi="http://sodipodi.sourceforge.net/DTD/sodipodi-0.dtd"
   xmlns:inkscape="http://www.inkscape.org/namespaces/inkscape"
   viewBox="0 0 48 48"
   id="svg11687"
   version="1.1"
   inkscape:version="0.91 r13725"
   sodipodi:docname="default-folder-music.svg">
  <metadata
     id="metadata11728">
    <rdf:RDF>
      <cc:Work
         rdf:about="">
        <dc:format>image/svg+xml</dc:format>
        <dc:type
           rdf:resource="http://purl.org/dc/dcmitype/StillImage" />
      </cc:Work>
    </rdf:RDF>
  </metadata>
  <sodipodi:namedview
     pagecolor="#ffffff"
     bordercolor="#666666"
     borderopacity="1"
     objecttolerance="10"
     gridtolerance="10"
     guidetolerance="10"
     inkscape:pageopacity="0"
     inkscape:pageshadow="2"
     inkscape:window-width="1863"
     inkscape:window-height="1021"
     id="namedview11726"
     showgrid="false"
     inkscape:zoom="6.9532167"
     inkscape:cx="12.444498"
     inkscape:cy="17.71061"
     inkscape:window-x="57"
     inkscape:window-y="31"
     inkscape:window-maximized="1"
     inkscape:current-layer="svg11687" />
  <defs
     id="defs11689">
    <radialGradient
       id="radialGradient3850"
       cx="24.08"
       cy="41.38"
       r="21.08"
       gradientTransform="matrix(1,0,0,0.11307633,0,36.703704)"
       gradientUnits="userSpaceOnUse">
      <stop
         style="stop-color:#000;stop-opacity:0.392"
         id="stop11692" />
      <stop
         offset="1"
         style="stop-color:#000;stop-opacity:0"
         id="stop11694" />
    </radialGradient>
  </defs>
  <g
     transform="translate(0,-1004.3622)"
     id="g11700" />
  <path
     inkscape:connector-curvature="0"
     d="m 3.1708933,14.360408 0,27.999999 42.0000007,0 0,-14 -2,-11.999998 -16,0 -2,-4.000001 -20.0000007,0 c -1,0 -2,1 -2,2 z"
     style="fill:#ececec;fill-opacity:1;stroke:none"
     id="path8315" />
  <rect
     width="21"
     height="8"
     x="6.1708946"
     y="17.360394"
     style="fill:#2ca7f8;fill-opacity:0.96534651;stroke:none"
     id="rect8317" />
  <path
     inkscape:connector-curvature="0"
     d="m 5.1708933,12.362608 c -1,0 -2,1 -2,2 l 0,1 c 0,-1 1,-2 2,-2 l 19.0000007,0 2,4 17,0 2,11.999999 0,-1 -2,-11.999998 -16,0 -2,-4.000001 z"
     style="opacity:0.80400002;fill:#808080;fill-opacity:1;stroke:none"
     id="path8319" />
  <path
     inkscape:connector-curvature="0"
     d="m 45.170894,18.360408 0,27.999999 -42.0000007,0 0,-25.999999 20.0000007,0 2,-3.999999 18,0 c 1,0 2,0.999999 2,1.999999 z"
     style="fill:#f2f2f2;fill-opacity:1;stroke:none"
     id="path8321" />
  <path
     inkscape:connector-curvature="0"
     d="m 3.1708933,45.360407 0,1 42.0000007,0 0,-1 z"
     style="opacity:0.80100002;fill:#4d4d4d;fill-opacity:1;stroke:none"
     id="path8323" />
  <path
     inkscape:connector-curvature="0"
     d="m 25.170894,16.362609 -2,3.999999 -20.0000007,0 0,1 21.0000007,0 2,-4 17,0 c 1,0 2,1 2,2 l 0,-1 c 0,-1 -1,-1.999999 -2,-1.999999 z"
     style="opacity:0.80400002;fill:#808080;fill-opacity:1;stroke:none"
     id="path8325" />
  <rect
     style="opacity:0.80100002;fill:#2ca7f8;fill-opacity:0.55445545"
     id="rect8352"
     width="0.1732852"
     height="30.729242"
     x="3.1167433"
     y="14.58653" />
  <rect
     style="opacity:0.80100002;fill:#2ca7f8;fill-opacity:0.55445545"
     id="rect8352-6"
     width="0.1732852"
     height="26.916967"
     x="-45.138401"
     y="18.629679"
     transform="scale(-1,1)" />
  <rect
     style="opacity:0.80100002;fill:#2ca7f8;fill-opacity:1"
     id="rect8377"
     width="0.23104693"
     height="0.1732852"
     x="11.0301"
     y="18.514322" />
  <g
     transform="translate(37.534178,-997.62748)"
     style="opacity:1;fill:#999999"
     id="g11714">
    <path
       inkscape:connector-curvature="0"
       transform="matrix(1.6457927,0,0,1.7226703,-7.161196,1022.6419)"
       d="M -5,8.259 C -5,9.221 -5.816,10 -6.823,10 c -1.01,0 -1.823,-0.78 -1.823,-1.741 0,-0.962 0.816,-1.741 1.823,-1.741 1.01,0 1.823,0.78 1.823,1.741 z"
       style="fill:#999999;fill-opacity:1;stroke:none"
       id="path11716" />
    <path
       inkscape:connector-curvature="0"
       d="M -5,8.259 C -5,9.221 -5.816,10 -6.823,10 c -1.01,0 -1.823,-0.78 -1.823,-1.741 0,-0.962 0.816,-1.741 1.823,-1.741 1.01,0 1.823,0.78 1.823,1.741 z"
       transform="matrix(1.6457927,0,0,1.7226703,2.838804,1022.6419)"
       style="fill:#999999;fill-opacity:1;stroke:none"
       id="path11718" />
    <rect
       rx="1"
       y="1025.87"
       x="-17.389999"
       height="12"
       width="2"
       style="fill:#999999;fill-opacity:1;stroke:none"
       id="rect11720" />
    <rect
       width="2"
       height="12"
       x="-7.3899999"
       y="1025.87"
       rx="1"
       style="fill:#999999;fill-opacity:1;stroke:none"
       id="rect11722" />
    <rect
       rx="2"
       y="1023.87"
       x="-17.389999"
       height="5"
       width="12"
       style="fill:#999999;fill-opacity:1;stroke:none"
       id="rect11724" />
  </g>
</svg>
