<?xml version="1.0" encoding="UTF-8" standalone="no"?>
<svg
   xmlns:dc="http://purl.org/dc/elements/1.1/"
   xmlns:cc="http://creativecommons.org/ns#"
   xmlns:rdf="http://www.w3.org/1999/02/22-rdf-syntax-ns#"
   xmlns:svg="http://www.w3.org/2000/svg"
   xmlns="http://www.w3.org/2000/svg"
   xmlns:sodipodi="http://sodipodi.sourceforge.net/DTD/sodipodi-0.dtd"
   xmlns:inkscape="http://www.inkscape.org/namespaces/inkscape"
   viewBox="0 0 48 48"
   id="svg14449"
   version="1.1"
   inkscape:version="0.91 r13725"
   sodipodi:docname="default-folder-download.svg">
  <metadata
     id="metadata14490">
    <rdf:RDF>
      <cc:Work
         rdf:about="">
        <dc:format>image/svg+xml</dc:format>
        <dc:type
           rdf:resource="http://purl.org/dc/dcmitype/StillImage" />
      </cc:Work>
    </rdf:RDF>
  </metadata>
  <sodipodi:namedview
     pagecolor="#ffffff"
     bordercolor="#666666"
     borderopacity="1"
     objecttolerance="10"
     gridtolerance="10"
     guidetolerance="10"
     inkscape:pageopacity="0"
     inkscape:pageshadow="2"
     inkscape:window-width="1863"
     inkscape:window-height="1021"
     id="namedview14488"
     showgrid="false"
     inkscape:zoom="6.9532167"
     inkscape:cx="5.0967829"
     inkscape:cy="37.953947"
     inkscape:window-x="57"
     inkscape:window-y="31"
     inkscape:window-maximized="1"
     inkscape:current-layer="g14462" />
  <defs
     id="defs14451">
    <radialGradient
       id="radialGradient3850"
       cx="24.08"
       cy="41.38"
       r="21.08"
       gradientTransform="matrix(1,0,0,0.11307633,0,36.703704)"
       gradientUnits="userSpaceOnUse">
      <stop
         style="stop-color:#000;stop-opacity:0.392"
         id="stop14454" />
      <stop
         offset="1"
         style="stop-color:#000;stop-opacity:0"
         id="stop14456" />
    </radialGradient>
  </defs>
  <g
     transform="translate(5.2881356,-1010.6673)"
     id="g14462">
    <path
       inkscape:connector-curvature="0"
       d="m -2.0576703,1024.8856 0,28 42.0000003,0 0,-14 -2,-12 -16,0 -2,-4 -20.00000031,0 c -0.99999999,0 -1.99999999,1 -1.99999999,2 z"
       style="fill:#ececec;fill-opacity:1;stroke:none"
       id="path8315" />
    <rect
       width="21"
       height="8"
       x="0.94232851"
       y="1027.8857"
       style="fill:#2ca7f8;fill-opacity:0.96534651;stroke:none"
       id="rect8317" />
    <path
       inkscape:connector-curvature="0"
       d="m -0.05767031,1022.8878 c -0.99999999,0 -1.99999999,1 -1.99999999,2 l 0,1 c 0,-1 1,-2 1.99999999,-2 l 19.00000031,0 2,4 17,0 2,12 0,-1 -2,-12 -16,0 -2,-4 z"
       style="opacity:0.80400002;fill:#808080;fill-opacity:1;stroke:none"
       id="path8319" />
    <path
       inkscape:connector-curvature="0"
       d="m 39.94233,1028.8856 0,28 -42.0000003,0 0,-26 20.0000003,0 2,-4 18,0 c 1,0 2,1 2,2 z"
       style="fill:#f2f2f2;fill-opacity:1;stroke:none"
       id="path8321" />
    <path
       inkscape:connector-curvature="0"
       d="m -2.0576703,1055.8856 0,1 42.0000003,0 0,-1 z"
       style="opacity:0.80100002;fill:#4d4d4d;fill-opacity:1;stroke:none"
       id="path8323" />
    <path
       inkscape:connector-curvature="0"
       d="m 19.94233,1026.8878 -2,4 -20.0000003,0 0,1 21.0000003,0 2,-4 17,0 c 1,0 2,1 2,2 l 0,-1 c 0,-1 -1,-2 -2,-2 z"
       style="opacity:0.80400002;fill:#808080;fill-opacity:1;stroke:none"
       id="path8325" />
    <rect
       style="opacity:0.80100002;fill:#2ca7f8;fill-opacity:0.55445545"
       id="rect8352"
       width="0.1732852"
       height="30.729242"
       x="-2.1118212"
       y="1025.1117" />
    <rect
       style="opacity:0.80100002;fill:#2ca7f8;fill-opacity:0.55445545"
       id="rect8352-6"
       width="0.1732852"
       height="26.916967"
       x="-39.909832"
       y="1029.1549"
       transform="scale(-1,1)" />
    <rect
       style="opacity:0.80100002;fill:#2ca7f8;fill-opacity:1"
       id="rect8377"
       width="0.23104693"
       height="0.1732852"
       x="5.8015356"
       y="1029.0396" />
    <g
       transform="translate(26.929034,13.946443)"
       style="opacity:1;fill:#999999"
       id="g14476">
      <rect
         rx="1"
         y="1034.49"
         x="-15.607"
         height="2"
         width="16"
         style="fill:#999999;fill-opacity:1;stroke:none"
         id="rect14478" />
      <rect
         transform="matrix(0,1,-1,0,0,0)"
         width="7"
         height="2"
         x="1029.49"
         y="13.607"
         rx="1"
         style="fill:#999999;fill-opacity:1;stroke:none"
         id="rect14480" />
      <rect
         rx="1"
         y="-0.39300001"
         x="1029.49"
         height="2"
         width="7"
         transform="matrix(0,1,-1,0,0,0)"
         style="fill:#999999;fill-opacity:1;stroke:none"
         id="rect14482" />
      <path
         d="m -6.607,1032.49 c -1,1 -1,1 -2,0 l -3,-3 c -1,-1 -1,-1 0,-1 l 8,0 c 1,0 1,0 0,1 z"
         style="fill:#999999;fill-opacity:1;stroke:none"
         id="path14484"
         inkscape:connector-curvature="0" />
      <rect
         rx="2"
         y="1021.49"
         x="-9.6070004"
         height="10"
         width="4"
         style="fill:#999999;fill-opacity:1;stroke:none"
         id="rect14486" />
    </g>
  </g>
</svg>
