<?xml version="1.0" encoding="UTF-8" standalone="no"?>
<svg
   xmlns:dc="http://purl.org/dc/elements/1.1/"
   xmlns:cc="http://creativecommons.org/ns#"
   xmlns:rdf="http://www.w3.org/1999/02/22-rdf-syntax-ns#"
   xmlns:svg="http://www.w3.org/2000/svg"
   xmlns="http://www.w3.org/2000/svg"
   xmlns:sodipodi="http://sodipodi.sourceforge.net/DTD/sodipodi-0.dtd"
   xmlns:inkscape="http://www.inkscape.org/namespaces/inkscape"
   viewBox="0 0 48 48"
   id="svg10333"
   version="1.1"
   inkscape:version="0.91 r13725"
   sodipodi:docname="default-user-home.svg">
  <metadata
     id="metadata10370">
    <rdf:RDF>
      <cc:Work
         rdf:about="">
        <dc:format>image/svg+xml</dc:format>
        <dc:type
           rdf:resource="http://purl.org/dc/dcmitype/StillImage" />
      </cc:Work>
    </rdf:RDF>
  </metadata>
  <sodipodi:namedview
     pagecolor="#ffffff"
     bordercolor="#666666"
     borderopacity="1"
     objecttolerance="10"
     gridtolerance="10"
     guidetolerance="10"
     inkscape:pageopacity="0"
     inkscape:pageshadow="2"
     inkscape:window-width="1863"
     inkscape:window-height="1021"
     id="namedview10368"
     showgrid="false"
     inkscape:zoom="4.9166667"
     inkscape:cx="24"
     inkscape:cy="23.694915"
     inkscape:window-x="57"
     inkscape:window-y="31"
     inkscape:window-maximized="1"
     inkscape:current-layer="svg10333" />
  <defs
     id="defs10335">
    <radialGradient
       id="radialGradient3850"
       cx="24.08"
       cy="41.38"
       r="21.08"
       gradientTransform="matrix(1,0,0,0.11307633,0,36.703704)"
       gradientUnits="userSpaceOnUse">
      <stop
         style="stop-color:#000;stop-opacity:0.392"
         id="stop10338" />
      <stop
         offset="1"
         style="stop-color:#000;stop-opacity:0"
         id="stop10340" />
    </radialGradient>
  </defs>
  <g
     transform="translate(0,-1004.3622)"
     id="g10346" />
  <path
     inkscape:connector-curvature="0"
     d="m 3.4338552,13.677966 0,28 42.0000008,0 0,-14 -2,-12 -16,0 -2,-4 -20.0000009,0 c -1,0 -1.9999999,1 -1.9999999,2 z"
     style="fill:#ececec;fill-opacity:1;stroke:none"
     id="path8315" />
  <rect
     width="21"
     height="8"
     x="6.4338551"
     y="16.677952"
     style="fill:#2ca7f8;fill-opacity:0.96534651;stroke:none"
     id="rect8317" />
  <path
     inkscape:connector-curvature="0"
     d="m 5.4338551,11.680166 c -1,0 -1.9999999,1 -1.9999999,2 l 0,1 c 0,-1 0.9999999,-2 1.9999999,-2 l 19.0000009,0 2,4 17,0 2,12 0,-1 -2,-12 -16,0 -2,-4 z"
     style="opacity:0.80400002;fill:#808080;fill-opacity:1;stroke:none"
     id="path8319" />
  <path
     inkscape:connector-curvature="0"
     d="m 45.433856,17.677966 0,28 -42.0000008,0 0,-26 20.0000008,0 2,-4 18,0 c 1,0 2,1 2,2 z"
     style="fill:#f2f2f2;fill-opacity:1;stroke:none"
     id="path8321" />
  <path
     inkscape:connector-curvature="0"
     d="m 3.4338552,44.677966 0,1 42.0000008,0 0,-1 z"
     style="opacity:0.80100002;fill:#4d4d4d;fill-opacity:1;stroke:none"
     id="path8323" />
  <path
     inkscape:connector-curvature="0"
     d="m 25.433856,15.680166 -2,4 -20.0000008,0 0,1 21.0000008,0 2,-4 17,0 c 1,0 2,1 2,2 l 0,-1 c 0,-1 -1,-2 -2,-2 z"
     style="opacity:0.80400002;fill:#808080;fill-opacity:1;stroke:none"
     id="path8325" />
  <rect
     style="opacity:0.80100002;fill:#2ca7f8;fill-opacity:0.55445545"
     id="rect8352"
     width="0.1732852"
     height="30.729242"
     x="3.3797038"
     y="13.904087" />
  <rect
     style="opacity:0.80100002;fill:#2ca7f8;fill-opacity:0.55445545"
     id="rect8352-6"
     width="0.1732852"
     height="26.916967"
     x="-45.401363"
     y="17.947239"
     transform="scale(-1,1)" />
  <rect
     style="opacity:0.80100002;fill:#2ca7f8;fill-opacity:1"
     id="rect8377"
     width="0.23104693"
     height="0.1732852"
     x="11.293061"
     y="17.831882" />
  <g
     transform="translate(15.639339,23.454066)"
     style="opacity:1;fill:#999999;fill-opacity:1"
     id="g10360">
    <path
       inkscape:connector-curvature="0"
       d="m 2,7 0,7 c 0,1.108 0.892,2 2,2 l 2,0 0,-6 4,0 0,6 2,0 c 1.108,0 2,-0.892 2,-2 l 0,-7 z"
       id="path10362"
       style="fill:#999999" />
    <path
       inkscape:connector-curvature="0"
       d="m 2,6 c -2.203,2 -3,2 0,2 l 12,0 c 3,0 2.288,0 0,-2 L 9,1 C 8,0 8,0 7,1 Z"
       style="fill:#999999;stroke:none"
       id="path10364" />
    <path
       inkscape:connector-curvature="0"
       d="m 13,1 c 1,0 1,0.446 1,1 l 0,4 -2,0 0,-4 c 0,-0.554 0,-1 1,-1 z"
       style="fill:#999999;stroke:none"
       id="path10366" />
  </g>
</svg>
