<?xml version="1.0" encoding="UTF-8" standalone="no"?>
<svg
   xmlns:dc="http://purl.org/dc/elements/1.1/"
   xmlns:cc="http://creativecommons.org/ns#"
   xmlns:rdf="http://www.w3.org/1999/02/22-rdf-syntax-ns#"
   xmlns:svg="http://www.w3.org/2000/svg"
   xmlns="http://www.w3.org/2000/svg"
   xmlns:sodipodi="http://sodipodi.sourceforge.net/DTD/sodipodi-0.dtd"
   xmlns:inkscape="http://www.inkscape.org/namespaces/inkscape"
   viewBox="0 0 48 48"
   id="svg17749"
   version="1.1"
   inkscape:version="0.91 r13725"
   sodipodi:docname="folders-documents.svg">
  <metadata
     id="metadata17790">
    <rdf:RDF>
      <cc:Work
         rdf:about="">
        <dc:format>image/svg+xml</dc:format>
        <dc:type
           rdf:resource="http://purl.org/dc/dcmitype/StillImage" />
      </cc:Work>
    </rdf:RDF>
  </metadata>
  <sodipodi:namedview
     pagecolor="#ffffff"
     bordercolor="#666666"
     borderopacity="1"
     objecttolerance="10"
     gridtolerance="10"
     guidetolerance="10"
     inkscape:pageopacity="0"
     inkscape:pageshadow="2"
     inkscape:window-width="1863"
     inkscape:window-height="1021"
     id="namedview17788"
     showgrid="false"
     inkscape:zoom="9.8333333"
     inkscape:cx="-10.844688"
     inkscape:cy="-1.7511959"
     inkscape:window-x="57"
     inkscape:window-y="31"
     inkscape:window-maximized="1"
     inkscape:current-layer="svg17749" />
  <defs
     id="defs17751">
    <radialGradient
       id="radialGradient3850"
       cx="24.08"
       cy="41.38"
       r="21.08"
       gradientTransform="matrix(1,0,0,0.11307633,0,36.703704)"
       gradientUnits="userSpaceOnUse">
      <stop
         style="stop-color:#000;stop-opacity:0.392"
         id="stop17754" />
      <stop
         offset="1"
         style="stop-color:#000;stop-opacity:0"
         id="stop17756" />
    </radialGradient>
  </defs>
  <g
     id="g17758"
     transform="translate(0.431455,2.9985033)">
    <path
       d="m 45.15,41.38 a 21.08,2.383 0 1 1 -42.15,0 21.08,2.383 0 1 1 42.15,0 z"
       transform="matrix(1.1387537,0,0,1.0490275,-3.4162611,-1.9120725)"
       style="opacity:0.65;fill:url(#radialGradient3850);fill-opacity:1;stroke:none"
       id="path17760"
       inkscape:connector-curvature="0" />
  </g>
  <g
     transform="translate(1.0416245,-1003.8044)"
     id="g17762">
    <path
       inkscape:connector-curvature="0"
       d="m 2.4169063,1017.43 0,28 42.0000007,0 0,-14 -2,-12 -16,0 -2,-4 -20.0000007,0 c -1,0 -2,1 -2,2 z"
       style="fill:#ececec;fill-opacity:1;stroke:none"
       id="path8315" />
    <rect
       width="21"
       height="8"
       x="5.4169073"
       y="1020.43"
       style="fill:#2ca7f8;fill-opacity:0.96534651;stroke:none"
       id="rect8317" />
    <path
       inkscape:connector-curvature="0"
       d="m 4.4169063,1015.4322 c -1,0 -2,1 -2,2 l 0,1 c 0,-1 1,-2 2,-2 l 19.0000007,0 2,4 17,0 2,12 0,-1 -2,-12 -16,0 -2,-4 z"
       style="opacity:0.80400002;fill:#808080;fill-opacity:1;stroke:none"
       id="path8319" />
    <path
       inkscape:connector-curvature="0"
       d="m 44.416907,1021.43 0,28 -42.0000007,0 0,-26 20.0000007,0 2,-4 18,0 c 1,0 2,1 2,2 z"
       style="fill:#f2f2f2;fill-opacity:1;stroke:none"
       id="path8321" />
    <path
       inkscape:connector-curvature="0"
       d="m 2.4169063,1048.43 0,1 42.0000007,0 0,-1 z"
       style="opacity:0.80100002;fill:#4d4d4d;fill-opacity:1;stroke:none"
       id="path8323" />
    <path
       inkscape:connector-curvature="0"
       d="m 24.416907,1019.4322 -2,4 -20.0000007,0 0,1 21.0000007,0 2,-4 17,0 c 1,0 2,1 2,2 l 0,-1 c 0,-1 -1,-2 -2,-2 z"
       style="opacity:0.80400002;fill:#808080;fill-opacity:1;stroke:none"
       id="path8325" />
    <rect
       style="opacity:0.80100002;fill:#2ca7f8;fill-opacity:0.55445545"
       id="rect8352"
       width="0.1732852"
       height="30.729242"
       x="2.3627546"
       y="1017.6562" />
    <rect
       style="opacity:0.80100002;fill:#2ca7f8;fill-opacity:0.55445545"
       id="rect8352-6"
       width="0.1732852"
       height="26.916967"
       x="-44.384415"
       y="1021.6993"
       transform="scale(-1,1)" />
    <rect
       style="opacity:0.80100002;fill:#2ca7f8;fill-opacity:1"
       id="rect8377"
       width="0.23104693"
       height="0.1732852"
       x="10.276113"
       y="1021.5839" />
    <g
       transform="translate(14.983052,1028.091)"
       style="opacity:1;fill:#999999;fill-opacity:1"
       id="g17776">
      <path
         inkscape:connector-curvature="0"
         d="M 4,0 C 2.892,0 2,0.892 2,2 l 0,12 c 0,1.108 0.892,2 2,2 l 8,0 c 1.108,0 2,-0.892 2,-2 L 14,5 9,0 Z m 0,2 6,0 1,1 1,1 0,10 -8,0 z"
         style="fill:#999999;stroke:none"
         id="path17778" />
      <path
         inkscape:connector-curvature="0"
         d="m 9,0 0,5 5,0 z"
         style="fill:#999999;stroke:none"
         id="path17780" />
      <rect
         rx="0.25"
         y="7"
         x="5"
         height="1"
         width="4"
         style="fill:#999999;stroke:none"
         id="rect17782" />
      <rect
         width="6"
         height="1"
         x="5"
         y="9"
         rx="0.25"
         style="fill:#999999;stroke:none"
         id="rect17784" />
      <rect
         rx="0.25"
         y="11"
         x="5"
         height="1"
         width="6"
         style="fill:#999999;stroke:none"
         id="rect17786" />
    </g>
  </g>
</svg>
