<?xml version="1.0" encoding="UTF-8" standalone="no"?>
<svg
   xmlns:dc="http://purl.org/dc/elements/1.1/"
   xmlns:cc="http://creativecommons.org/ns#"
   xmlns:rdf="http://www.w3.org/1999/02/22-rdf-syntax-ns#"
   xmlns:svg="http://www.w3.org/2000/svg"
   xmlns="http://www.w3.org/2000/svg"
   xmlns:sodipodi="http://sodipodi.sourceforge.net/DTD/sodipodi-0.dtd"
   xmlns:inkscape="http://www.inkscape.org/namespaces/inkscape"
   viewBox="0 0 48 48"
   id="svg27553"
   version="1.1"
   inkscape:version="0.91 r13725"
   sodipodi:docname="default-folder-books.svg">
  <metadata
     id="metadata27586">
    <rdf:RDF>
      <cc:Work
         rdf:about="">
        <dc:format>image/svg+xml</dc:format>
        <dc:type
           rdf:resource="http://purl.org/dc/dcmitype/StillImage" />
      </cc:Work>
    </rdf:RDF>
  </metadata>
  <sodipodi:namedview
     pagecolor="#ffffff"
     bordercolor="#666666"
     borderopacity="1"
     objecttolerance="10"
     gridtolerance="10"
     guidetolerance="10"
     inkscape:pageopacity="0"
     inkscape:pageshadow="2"
     inkscape:window-width="756"
     inkscape:window-height="480"
     id="namedview27584"
     showgrid="false"
     inkscape:zoom="6.9532167"
     inkscape:cx="27.57429"
     inkscape:cy="18.519422"
     inkscape:window-x="57"
     inkscape:window-y="31"
     inkscape:window-maximized="0"
     inkscape:current-layer="svg27553" />
  <defs
     id="defs27555">
    <radialGradient
       id="radialGradient3850"
       cx="24.08"
       cy="41.38"
       r="21.08"
       gradientTransform="matrix(1,0,0,0.11307633,0,36.703704)"
       gradientUnits="userSpaceOnUse">
      <stop
         style="stop-color:#000;stop-opacity:0.392"
         id="stop27558" />
      <stop
         offset="1"
         style="stop-color:#000;stop-opacity:0"
         id="stop27560" />
    </radialGradient>
  </defs>
  <g
     transform="translate(0,-1004.3622)"
     id="g27566" />
  <path
     inkscape:connector-curvature="0"
     d="m 2.0203482,14.608915 0,28 41.9999988,0 0,-14 -2,-12 -16,0 -2,-4 -19.9999988,0 c -1,0 -2,1 -2,2 z"
     style="fill:#ececec;fill-opacity:1;stroke:none"
     id="path8315" />
  <rect
     width="21"
     height="8"
     x="5.0203485"
     y="17.608902"
     style="fill:#2ca7f8;fill-opacity:0.96534651;stroke:none"
     id="rect8317" />
  <path
     inkscape:connector-curvature="0"
     d="m 4.0203482,12.611115 c -1,0 -2,1 -2,2 l 0,1 c 0,-1 1,-2 2,-2 l 18.9999988,0 2,4.000001 17,0 2,11.999999 0,-1 -2,-12 -16,0 -2,-4 z"
     style="opacity:0.80400002;fill:#808080;fill-opacity:1;stroke:none"
     id="path8319" />
  <path
     inkscape:connector-curvature="0"
     d="m 44.020347,18.608915 0,28 -41.9999988,0 0,-26 19.9999988,0 2,-4 18,0 c 1,0 2,1.000001 2,2 z"
     style="fill:#f2f2f2;fill-opacity:1;stroke:none"
     id="path8321" />
  <path
     inkscape:connector-curvature="0"
     d="m 2.0203482,45.608915 0,1 41.9999988,0 0,-1 z"
     style="opacity:0.80100002;fill:#4d4d4d;fill-opacity:1;stroke:none"
     id="path8323" />
  <path
     inkscape:connector-curvature="0"
     d="m 24.020347,16.611115 -2,4 -19.9999988,0 0,1 20.9999988,0 2,-3.999999 17,0 c 1,0 2,0.999999 2,1.999999 l 0,-1 c 0,-0.999999 -1,-2 -2,-2 z"
     style="opacity:0.80400002;fill:#808080;fill-opacity:1;stroke:none"
     id="path8325" />
  <rect
     style="opacity:0.80100002;fill:#2ca7f8;fill-opacity:0.55445545"
     id="rect8352"
     width="0.1732852"
     height="30.729242"
     x="1.9661967"
     y="14.835035" />
  <rect
     style="opacity:0.80100002;fill:#2ca7f8;fill-opacity:0.55445545"
     id="rect8352-6"
     width="0.1732852"
     height="26.916967"
     x="-43.987858"
     y="18.878187"
     transform="scale(-1,1)" />
  <rect
     style="opacity:0.80100002;fill:#2ca7f8;fill-opacity:1"
     id="rect8377"
     width="0.23104693"
     height="0.1732852"
     x="9.8795538"
     y="18.762831" />
  <g
     transform="matrix(3.5433066,0,0,3.5433066,15.190633,-6.2461612)"
     style="opacity:1;fill:#999999;fill-opacity:1"
     id="g27580">
    <path
       inkscape:connector-curvature="0"
       d="m 2.54,13.547 0,-2.963 -0.564,0 0,2.963 z M 1.693,10.443 0,9.314 l 0,2.822 1.693,1.129 m 2.822,-1.129 0,-2.822 -1.693,1.129 0,2.822 z M 4.233,9.032 C 3.386,9.032 2.822,9.314 2.257,9.785 1.693,9.315 1.128,9.032 0.281,9.032 l 1.693,1.129 0.564,0 z"
       style="fill:#999999;fill-rule:nonzero;stroke:none"
       id="path27582" />
  </g>
</svg>
