<?xml version="1.0" encoding="UTF-8" standalone="no"?>
<svg
   xmlns:dc="http://purl.org/dc/elements/1.1/"
   xmlns:cc="http://creativecommons.org/ns#"
   xmlns:rdf="http://www.w3.org/1999/02/22-rdf-syntax-ns#"
   xmlns:svg="http://www.w3.org/2000/svg"
   xmlns="http://www.w3.org/2000/svg"
   xmlns:sodipodi="http://sodipodi.sourceforge.net/DTD/sodipodi-0.dtd"
   xmlns:inkscape="http://www.inkscape.org/namespaces/inkscape"
   viewBox="0 0 48 48"
   id="svg30782"
   version="1.1"
   inkscape:version="0.91 r13725"
   sodipodi:docname="default-folder-projects.svg">
  <metadata
     id="metadata30813">
    <rdf:RDF>
      <cc:Work
         rdf:about="">
        <dc:format>image/svg+xml</dc:format>
        <dc:type
           rdf:resource="http://purl.org/dc/dcmitype/StillImage" />
        <dc:title></dc:title>
      </cc:Work>
    </rdf:RDF>
  </metadata>
  <sodipodi:namedview
     pagecolor="#ffffff"
     bordercolor="#666666"
     borderopacity="1"
     objecttolerance="10"
     gridtolerance="10"
     guidetolerance="10"
     inkscape:pageopacity="0"
     inkscape:pageshadow="2"
     inkscape:window-width="1863"
     inkscape:window-height="1021"
     id="namedview30811"
     showgrid="false"
     inkscape:zoom="13.906433"
     inkscape:cx="24.171351"
     inkscape:cy="4.140688"
     inkscape:window-x="57"
     inkscape:window-y="31"
     inkscape:window-maximized="1"
     inkscape:current-layer="svg30782" />
  <defs
     id="defs30784">
    <radialGradient
       id="radialGradient3850"
       cx="24.08"
       cy="41.38"
       r="21.08"
       gradientTransform="matrix(1,0,0,0.11307633,0,36.703704)"
       gradientUnits="userSpaceOnUse">
      <stop
         style="stop-color:#000;stop-opacity:0.392"
         id="stop30787" />
      <stop
         offset="1"
         style="stop-color:#000;stop-opacity:0"
         id="stop30789" />
    </radialGradient>
  </defs>
  <g
     transform="translate(0,-1004.3622)"
     id="g30795" />
  <path
     inkscape:connector-curvature="0"
     d="m 2.9253823,14.610668 0,28 41.9999977,0 0,-14 -2,-12 -16,0 -2,-4 -19.9999977,0 c -1,0 -2,1 -2,2 z"
     style="fill:#ececec;fill-opacity:1;stroke:none"
     id="path8315" />
  <rect
     width="21"
     height="8"
     x="5.9253812"
     y="17.610655"
     style="fill:#2ca7f8;fill-opacity:0.96534651;stroke:none"
     id="rect8317" />
  <path
     inkscape:connector-curvature="0"
     d="m 4.9253823,12.612868 c -1,0 -2,1 -2,2 l 0,1 c 0,-1 1,-2 2,-2 l 18.9999977,0 2,4.000001 17,0 2,11.999999 0,-1 -2,-12 -16,0 -2,-4 z"
     style="opacity:0.80400002;fill:#808080;fill-opacity:1;stroke:none"
     id="path8319" />
  <path
     inkscape:connector-curvature="0"
     d="m 44.92538,18.610668 0,28 -41.9999977,0 0,-26 19.9999977,0 2,-4 18,0 c 1,0 2,1.000001 2,2 z"
     style="fill:#f2f2f2;fill-opacity:1;stroke:none"
     id="path8321" />
  <path
     inkscape:connector-curvature="0"
     d="m 2.9253823,45.610668 0,1 41.9999977,0 0,-1 z"
     style="opacity:0.80100002;fill:#4d4d4d;fill-opacity:1;stroke:none"
     id="path8323" />
  <path
     inkscape:connector-curvature="0"
     d="m 24.92538,16.612868 -2,4 -19.9999977,0 0,1 20.9999977,0 2,-3.999999 17,0 c 1,0 2,0.999999 2,1.999999 l 0,-1 c 0,-0.999999 -1,-2 -2,-2 z"
     style="opacity:0.80400002;fill:#808080;fill-opacity:1;stroke:none"
     id="path8325" />
  <rect
     style="opacity:0.80100002;fill:#2ca7f8;fill-opacity:0.55445545"
     id="rect8352"
     width="0.1732852"
     height="30.729242"
     x="2.8712316"
     y="14.836788" />
  <rect
     style="opacity:0.80100002;fill:#2ca7f8;fill-opacity:0.55445545"
     id="rect8352-6"
     width="0.1732852"
     height="26.916967"
     x="-44.892899"
     y="18.879938"
     transform="scale(-1,1)" />
  <rect
     style="opacity:0.80100002;fill:#2ca7f8;fill-opacity:1"
     id="rect8377"
     width="0.23104693"
     height="0.1732852"
     x="10.784587"
     y="18.764582" />
  <path
     id="path9958"
     style="fill:#999999;fill-opacity:1;fill-rule:nonzero;stroke:none"
     d="m 17.9587,26.105206 c -0.55,0.01 -1.07,0.068 -1.594,0.25 -0.165,1.116 0.107,2.274 0.406,3.344 0.762,2.453 2.176,4.782 4.25,6.344 0.076,0.072 0.184,0.089 0.156,0.219001 -0.011,0.544 -0.001,1.111 0,1.656 0.022,0.953 0.596,1.863 1.438,2.313 0.998,0.526 1.995,1.013 3,1.531 0.463,0.245 1.105,-0.036 1.25,-0.531 0.088,-0.326 0.027,-0.668 0.031,-1 -0.003,-0.7 -0.09,-1.403 -0.063,-2.094 0.915,-0.114 1.835,-0.557 2.375,-1.313 0.481,-0.645 0.653,-1.479001 0.594,-2.281001 0.979,-0.175 1.988,-0.322 2.969,-0.5 0.581,-0.116 0.832,-0.871 0.469,-1.344 -0.714,-0.904 -1.431,-1.79 -2.156,-2.688 -0.586,-0.7 -1.503,-1.088 -2.406,-0.969 -0.613,0.098 -1.24,0.23 -1.844,0.344 -1.95,-1.858 -4.572,-2.888 -7.219,-3.188 -0.543,-0.049 -1.106,-0.103 -1.656,-0.094 z m 3.313,2.031 c 0.639,-0.058 1.281,0.12 1.813,0.563 1.064,0.886 1.23,2.467 0.344,3.531 -0.886,1.064 -2.467,1.23 -3.531,0.344 -1.064,-0.886 -1.23,-2.467 -0.344,-3.531 0.443,-0.532 1.079,-0.848 1.719,-0.906 z m 0.063,0.844 c -0.426,0.039 -0.829,0.239 -1.125,0.594 -0.591,0.71 -0.491,1.753 0.219,2.344 0.71,0.591 1.753,0.491 2.344,-0.219 0.591,-0.71 0.491,-1.753 -0.219,-2.344 -0.355,-0.296 -0.793,-0.414 -1.219,-0.375 z m 10.156,6.813 c -0.219,-0.02 -0.437,0.146 -0.469,0.375001 -0.279,1.268 -1.181,2.369 -2.375,2.875 -0.311,0.098 -0.38,0.515 -0.125,0.719 0.524,0.437 1.13,0.941 1.656,1.375 0.256,0.218 0.589,-0.01 0.594,-0.344 -0.008,-0.266 -0.039,-0.55 -0.063,-0.813 0.653,0.14 1.292,0.326 1.938,0.469 0.304,0.063 0.593,-0.303 0.469,-0.594 -0.255,-0.612 -0.519,-1.204 -0.781,-1.813 0.264,-0.031 0.518,-0.054 0.781,-0.094 0.325,-0.064 0.453,-0.538 0.188,-0.75 -0.527,-0.443 -1.06,-0.872 -1.594,-1.313001 -0.062,-0.049 -0.146,-0.087 -0.219,-0.094 z"
     inkscape:connector-curvature="0" />
</svg>
