<?xml version="1.0" encoding="UTF-8" standalone="no"?>
<svg
   xmlns:dc="http://purl.org/dc/elements/1.1/"
   xmlns:cc="http://creativecommons.org/ns#"
   xmlns:rdf="http://www.w3.org/1999/02/22-rdf-syntax-ns#"
   xmlns:svg="http://www.w3.org/2000/svg"
   xmlns="http://www.w3.org/2000/svg"
   xmlns:sodipodi="http://sodipodi.sourceforge.net/DTD/sodipodi-0.dtd"
   xmlns:inkscape="http://www.inkscape.org/namespaces/inkscape"
   viewBox="0 0 48 48"
   id="svg30782"
   version="1.1"
   inkscape:version="0.91 r13725"
   sodipodi:docname="default-folder-hdd.svg">
  <metadata
     id="metadata30813">
    <rdf:RDF>
      <cc:Work
         rdf:about="">
        <dc:format>image/svg+xml</dc:format>
        <dc:type
           rdf:resource="http://purl.org/dc/dcmitype/StillImage" />
        <dc:title></dc:title>
      </cc:Work>
    </rdf:RDF>
  </metadata>
  <sodipodi:namedview
     pagecolor="#ffffff"
     bordercolor="#666666"
     borderopacity="1"
     objecttolerance="10"
     gridtolerance="10"
     guidetolerance="10"
     inkscape:pageopacity="0"
     inkscape:pageshadow="2"
     inkscape:window-width="1863"
     inkscape:window-height="1021"
     id="namedview30811"
     showgrid="false"
     inkscape:zoom="13.906433"
     inkscape:cx="24.171351"
     inkscape:cy="4.2485517"
     inkscape:window-x="57"
     inkscape:window-y="31"
     inkscape:window-maximized="1"
     inkscape:current-layer="svg30782" />
  <defs
     id="defs30784">
    <radialGradient
       id="radialGradient3850"
       cx="24.08"
       cy="41.38"
       r="21.08"
       gradientTransform="matrix(1,0,0,0.11307633,0,36.703704)"
       gradientUnits="userSpaceOnUse">
      <stop
         style="stop-color:#000;stop-opacity:0.392"
         id="stop30787" />
      <stop
         offset="1"
         style="stop-color:#000;stop-opacity:0"
         id="stop30789" />
    </radialGradient>
  </defs>
  <g
     transform="translate(0,-1004.3622)"
     id="g30795" />
  <path
     inkscape:connector-curvature="0"
     d="m 2.9253823,14.610668 0,28 41.9999977,0 0,-14 -2,-12 -16,0 -2,-4 -19.9999977,0 c -1,0 -2,1 -2,2 z"
     style="fill:#ececec;fill-opacity:1;stroke:none"
     id="path8315" />
  <rect
     width="21"
     height="8"
     x="5.9253812"
     y="17.610655"
     style="fill:#2ca7f8;fill-opacity:0.96534651;stroke:none"
     id="rect8317" />
  <path
     inkscape:connector-curvature="0"
     d="m 4.9253823,12.612868 c -1,0 -2,1 -2,2 l 0,1 c 0,-1 1,-2 2,-2 l 18.9999977,0 2,4.000001 17,0 2,11.999999 0,-1 -2,-12 -16,0 -2,-4 z"
     style="opacity:0.80400002;fill:#808080;fill-opacity:1;stroke:none"
     id="path8319" />
  <path
     inkscape:connector-curvature="0"
     d="m 44.92538,18.610668 0,28 -41.9999977,0 0,-26 19.9999977,0 2,-4 18,0 c 1,0 2,1.000001 2,2 z"
     style="fill:#f2f2f2;fill-opacity:1;stroke:none"
     id="path8321" />
  <path
     inkscape:connector-curvature="0"
     d="m 2.9253823,45.610668 0,1 41.9999977,0 0,-1 z"
     style="opacity:0.80100002;fill:#4d4d4d;fill-opacity:1;stroke:none"
     id="path8323" />
  <path
     inkscape:connector-curvature="0"
     d="m 24.92538,16.612868 -2,4 -19.9999977,0 0,1 20.9999977,0 2,-3.999999 17,0 c 1,0 2,0.999999 2,1.999999 l 0,-1 c 0,-0.999999 -1,-2 -2,-2 z"
     style="opacity:0.80400002;fill:#808080;fill-opacity:1;stroke:none"
     id="path8325" />
  <rect
     style="opacity:0.80100002;fill:#2ca7f8;fill-opacity:0.55445545"
     id="rect8352"
     width="0.1732852"
     height="30.729242"
     x="2.8712316"
     y="14.836788" />
  <rect
     style="opacity:0.80100002;fill:#2ca7f8;fill-opacity:0.55445545"
     id="rect8352-6"
     width="0.1732852"
     height="26.916967"
     x="-44.892899"
     y="18.879938"
     transform="scale(-1,1)" />
  <rect
     style="opacity:0.80100002;fill:#2ca7f8;fill-opacity:1"
     id="rect8377"
     width="0.23104693"
     height="0.1732852"
     x="10.784587"
     y="18.764582" />
  <g
     id="g9491"
     style="opacity:1;fill:#999999;fill-opacity:1"
     transform="translate(16.736753,24.611439)">
    <path
       id="path9493"
       style="stroke:none;fill:#999999"
       d="M 3,0 C 1.892,0 1,0.892 1,2 l 0,12 c 0,1.108 0.892,2 2,2 l 10,0 c 1.108,0 2,-0.892 2,-2 L 15,2 C 15,0.892 14.108,0 13,0 Z M 4,2 C 4.552,2 5,2.448 5,3 5,3.552 4.552,4 4,4 3.448,4 3,3.552 3,3 3,2.448 3.448,2 4,2 Z m 8,0 c 0.552,0 1,0.448 1,1 0,0.552 -0.448,1 -1,1 C 11.448,4 11,3.552 11,3 11,2.448 11.448,2 12,2 Z M 8,3 C 9.657,3 11,4.343 11,6 11,7.657 9.657,9 8,9 6.343,9 5,7.657 5,6 5,4.343 6.343,3 8,3 Z M 4,8 C 4.552,8 5,8.448 5,9 5,9.552 4.552,10 4,10 3.448,10 3,9.552 3,9 3,8.448 3.448,8 4,8 Z m 8,0 c 0.552,0 1,0.448 1,1 0,0.552 -0.448,1 -1,1 -0.552,0 -1,-0.448 -1,-1 0,-0.552 0.448,-1 1,-1 z m -8.5,5 9,0 c 0.277,0 0.5,0.223 0.5,0.5 0,0.277 -0.223,0.5 -0.5,0.5 l -9,0 C 3.223,14 3,13.777 3,13.5 3,13.223 3.223,13 3.5,13 Z"
       inkscape:connector-curvature="0" />
    <path
       id="path9495"
       style="stroke:none;fill:#999999"
       transform="matrix(0.51179914,0,0,0.41337621,10.830688,3.5398266)"
       d="m -3.577,5.951 c 0,1.336 -0.875,2.419 -1.954,2.419 -1.079,0 -1.954,-1.083 -1.954,-2.419 0,-1.336 0.875,-2.419 1.954,-2.419 1.079,0 1.954,1.083 1.954,2.419 z"
       inkscape:connector-curvature="0" />
  </g>
</svg>
