<?xml version="1.0" encoding="UTF-8" standalone="no"?>
<svg
   xmlns:dc="http://purl.org/dc/elements/1.1/"
   xmlns:cc="http://creativecommons.org/ns#"
   xmlns:rdf="http://www.w3.org/1999/02/22-rdf-syntax-ns#"
   xmlns:svg="http://www.w3.org/2000/svg"
   xmlns="http://www.w3.org/2000/svg"
   xmlns:sodipodi="http://sodipodi.sourceforge.net/DTD/sodipodi-0.dtd"
   xmlns:inkscape="http://www.inkscape.org/namespaces/inkscape"
   viewBox="0 0 48 48"
   id="svg15361"
   version="1.1"
   inkscape:version="0.91 r13725"
   sodipodi:docname="default-user-desktop.svg">
  <metadata
     id="metadata15398">
    <rdf:RDF>
      <cc:Work
         rdf:about="">
        <dc:format>image/svg+xml</dc:format>
        <dc:type
           rdf:resource="http://purl.org/dc/dcmitype/StillImage" />
      </cc:Work>
    </rdf:RDF>
  </metadata>
  <sodipodi:namedview
     pagecolor="#ffffff"
     bordercolor="#666666"
     borderopacity="1"
     objecttolerance="10"
     gridtolerance="10"
     guidetolerance="10"
     inkscape:pageopacity="0"
     inkscape:pageshadow="2"
     inkscape:window-width="1863"
     inkscape:window-height="1021"
     id="namedview15396"
     showgrid="false"
     inkscape:zoom="6.95"
     inkscape:cx="30.174185"
     inkscape:cy="12.841166"
     inkscape:window-x="57"
     inkscape:window-y="31"
     inkscape:window-maximized="1"
     inkscape:current-layer="svg15361" />
  <defs
     id="defs15363">
    <radialGradient
       id="radialGradient3850"
       cx="24.08"
       cy="41.38"
       r="21.08"
       gradientTransform="matrix(1,0,0,0.11307633,0,36.703704)"
       gradientUnits="userSpaceOnUse">
      <stop
         style="stop-color:#000;stop-opacity:0.392"
         id="stop15366" />
      <stop
         offset="1"
         style="stop-color:#000;stop-opacity:0"
         id="stop15368" />
    </radialGradient>
  </defs>
  <g
     transform="translate(0,-1004.3622)"
     id="g15374" />
  <path
     inkscape:connector-curvature="0"
     d="m 2.8113478,14.288136 0,28 42.0000012,0 0,-14 -2,-12 -16,0 -2,-4 -20.0000012,0 c -1,0 -2,1 -2,2 z"
     style="fill:#ececec;fill-opacity:1;stroke:none"
     id="path8315" />
  <rect
     width="21"
     height="8"
     x="5.8113489"
     y="17.288122"
     style="fill:#2ca7f8;fill-opacity:0.96534651;stroke:none"
     id="rect8317" />
  <path
     inkscape:connector-curvature="0"
     d="m 4.8113478,12.290336 c -1,0 -2,1 -2,2 l 0,1 c 0,-1 1,-2 2,-2 l 19.0000012,0 2,4 17,0 2,12 0,-1 -2,-12 -16,0 -2,-4 z"
     style="opacity:0.80400002;fill:#808080;fill-opacity:1;stroke:none"
     id="path8319" />
  <path
     inkscape:connector-curvature="0"
     d="m 44.811349,18.288136 0,28 -42.0000012,0 0,-26 20.0000012,0 2,-4 18,0 c 1,0 2,1 2,2 z"
     style="fill:#f2f2f2;fill-opacity:1;stroke:none"
     id="path8321" />
  <path
     inkscape:connector-curvature="0"
     d="m 2.8113478,45.288136 0,1 42.0000012,0 0,-1 z"
     style="opacity:0.80100002;fill:#4d4d4d;fill-opacity:1;stroke:none"
     id="path8323" />
  <path
     inkscape:connector-curvature="0"
     d="m 24.811349,16.290336 -2,4 -20.0000012,0 0,1 21.0000012,0 2,-4 17,0 c 1,0 2,1 2,2 l 0,-1 c 0,-1 -1,-2 -2,-2 z"
     style="opacity:0.80400002;fill:#808080;fill-opacity:1;stroke:none"
     id="path8325" />
  <rect
     style="opacity:0.80100002;fill:#2ca7f8;fill-opacity:0.55445545"
     id="rect8352"
     width="0.1732852"
     height="30.729242"
     x="2.7571971"
     y="14.514256" />
  <rect
     style="opacity:0.80100002;fill:#2ca7f8;fill-opacity:0.55445545"
     id="rect8352-6"
     width="0.1732852"
     height="26.916967"
     x="-44.778854"
     y="18.557409"
     transform="scale(-1,1)" />
  <rect
     style="opacity:0.80100002;fill:#2ca7f8;fill-opacity:1"
     id="rect8377"
     width="0.23104693"
     height="0.1732852"
     x="10.670551"
     y="18.442053" />
  <g
     style="opacity:1;fill:#999999;fill-opacity:1;enable-background:new"
     id="g15388"
     transform="translate(15.987663,24.949152)">
    <path
       inkscape:connector-curvature="0"
       d="m 4,4 0,5 c 0,1 1,1 1,1 l 4,0 c 1,0 1,-1 1,-1 L 10,5 8,3 5,3 C 5,3 4,3 4,4 Z M 5,4 7,4 7,6 9,6 9,9 5,9 Z"
       id="path15390"
       style="fill:#999999" />
    <path
       inkscape:connector-curvature="0"
       d="m 6,13 -2,2 c -1,1 -1,1 0,1 l 8,0 c 1,0 1,0 0,-1 l -2,-2 0,-1 -4,0 z"
       style="fill:#999999;stroke:none"
       id="path15392" />
    <path
       inkscape:connector-curvature="0"
       d="M 2,0 C 0.892,0 0,0.892 0,2 l 0,9 c 0,1.108 0.892,2 2,2 l 12,0 c 1.108,0 2,-0.892 2,-2 L 16,2 C 16,0.892 15.108,0 14,0 L 2,0 Z m 0,2 12,0 0,9 -12,0 0,-9 z"
       style="fill:#999999;stroke:none"
       id="path15394" />
  </g>
</svg>
