<?xml version="1.0" encoding="UTF-8" standalone="no"?>
<svg
   xmlns:dc="http://purl.org/dc/elements/1.1/"
   xmlns:cc="http://creativecommons.org/ns#"
   xmlns:rdf="http://www.w3.org/1999/02/22-rdf-syntax-ns#"
   xmlns:svg="http://www.w3.org/2000/svg"
   xmlns="http://www.w3.org/2000/svg"
   xmlns:sodipodi="http://sodipodi.sourceforge.net/DTD/sodipodi-0.dtd"
   xmlns:inkscape="http://www.inkscape.org/namespaces/inkscape"
   viewBox="0 0 48 48"
   id="svg30782"
   version="1.1"
   inkscape:version="0.91 r13725"
   sodipodi:docname="default-folder-recording.svg">
  <metadata
     id="metadata30813">
    <rdf:RDF>
      <cc:Work
         rdf:about="">
        <dc:format>image/svg+xml</dc:format>
        <dc:type
           rdf:resource="http://purl.org/dc/dcmitype/StillImage" />
        <dc:title></dc:title>
      </cc:Work>
    </rdf:RDF>
  </metadata>
  <sodipodi:namedview
     pagecolor="#ffffff"
     bordercolor="#666666"
     borderopacity="1"
     objecttolerance="10"
     gridtolerance="10"
     guidetolerance="10"
     inkscape:pageopacity="0"
     inkscape:pageshadow="2"
     inkscape:window-width="1863"
     inkscape:window-height="1021"
     id="namedview30811"
     showgrid="false"
     inkscape:zoom="6.9532167"
     inkscape:cx="77.780409"
     inkscape:cy="15.354529"
     inkscape:window-x="57"
     inkscape:window-y="31"
     inkscape:window-maximized="1"
     inkscape:current-layer="svg30782" />
  <defs
     id="defs30784">
    <radialGradient
       id="radialGradient3850"
       cx="24.08"
       cy="41.38"
       r="21.08"
       gradientTransform="matrix(1,0,0,0.11307633,0,36.703704)"
       gradientUnits="userSpaceOnUse">
      <stop
         style="stop-color:#000;stop-opacity:0.392"
         id="stop30787" />
      <stop
         offset="1"
         style="stop-color:#000;stop-opacity:0"
         id="stop30789" />
    </radialGradient>
  </defs>
  <g
     transform="translate(0,-1004.3622)"
     id="g30795" />
  <path
     inkscape:connector-curvature="0"
     d="m 3.1726484,14.087226 0,28 41.9999986,0 0,-14 -2,-12 -16,0 -2,-4 -19.9999982,0 c -1.0000004,0 -2.0000004,1 -2.0000004,2 z"
     style="fill:#ececec;fill-opacity:1;stroke:none"
     id="path8315" />
  <rect
     width="21"
     height="8"
     x="6.1726484"
     y="17.08721"
     style="fill:#2ca7f8;fill-opacity:0.96534651;stroke:none"
     id="rect8317" />
  <path
     inkscape:connector-curvature="0"
     d="m 5.1726488,12.089426 c -1.0000004,0 -2.0000004,1 -2.0000004,2 l 0,1 c 0,-1 1,-2 2.0000004,-2 l 18.9999982,0 2,4.000001 17,0 2,11.999999 0,-1 -2,-12 -16,0 -2,-4 z"
     style="opacity:0.80400002;fill:#808080;fill-opacity:1;stroke:none"
     id="path8319" />
  <path
     inkscape:connector-curvature="0"
     d="m 45.172647,18.087226 0,28 -41.9999986,0 0,-26 19.9999986,0 2,-4 18,0 c 1,0 2,1.000001 2,2 z"
     style="fill:#f2f2f2;fill-opacity:1;stroke:none"
     id="path8321" />
  <path
     inkscape:connector-curvature="0"
     d="m 5.4737417,45.231044 0,1 38.9798133,0 0,-1 z"
     style="opacity:0.80100002;fill:#4d4d4d;fill-opacity:1;stroke:none"
     id="path8323" />
  <path
     inkscape:connector-curvature="0"
     d="m 25.172647,16.089426 -2,4 -19.9999986,0 0,1 20.9999986,0 2,-3.999999 17,0 c 1,0 2,0.999999 2,1.999999 l 0,-1 c 0,-0.999999 -1,-2 -2,-2 z"
     style="opacity:0.80400002;fill:#808080;fill-opacity:1;stroke:none"
     id="path8325" />
  <rect
     style="opacity:0.80100002;fill:#2ca7f8;fill-opacity:0.55445545"
     id="rect8352"
     width="0.1732852"
     height="30.729242"
     x="3.1184967"
     y="14.313346" />
  <rect
     style="opacity:0.80100002;fill:#2ca7f8;fill-opacity:0.55445545"
     id="rect8352-6"
     width="0.1732852"
     height="26.916967"
     x="-45.140163"
     y="18.356495"
     transform="scale(-1,1)" />
  <rect
     style="opacity:0.80100002;fill:#2ca7f8;fill-opacity:1"
     id="rect8377"
     width="0.23104693"
     height="0.1732852"
     x="11.031854"
     y="18.241138" />
  <g
     id="g33235"
     transform="matrix(0.01786273,0,0,0.01872476,14.740308,23.778077)"
     style="fill:#999999">
    <path
       id="path33237"
       d="m 876.3,578.9 c -64.5,139.5 -190.7,230.4 -335.4,245 l 0,104.9 81.7,0 c 28.4,0 40.8,-7.1 40.8,20.4 0,27.5 -19.7,40.8 -48.1,40.8 l -217.4,0 c -28.4,0 -40.8,-13.3 -40.8,-40.8 0,-27.5 12.4,-20.4 40.8,-20.4 l 81.7,0 0,-103.4 C 326.4,817.8 191.3,725 123.7,578.9 c -11.6,-25.2 -17.2,-47.2 8.8,-58.5 25.9,-11.2 49.6,15.7 61.3,40.8 53.7,116.2 185.8,206 306.2,206 120.4,0 252.5,-89.9 306.2,-206 11.6,-25.1 35.3,-52.1 61.2,-40.8 26,11.3 20.5,33.4 8.9,58.5 l 0,0 z m -200,-4.3 c -22.7,80 -95.6,112.6 -176.4,112.6 -97,0 -153.8,-75.1 -163.3,-146.4 l 0,-367.5 C 340.5,98.8 403,10 500,10 c 97,0 162.7,44.7 183.8,163.3 l 0,387.9 c -0.1,3.4 -2.9,8 -7.5,13.4 l 0,0 z"
       inkscape:connector-curvature="0"
       style="fill:#999999" />
  </g>
</svg>
