<?xml version="1.0" encoding="UTF-8" standalone="no"?>
<svg
   xmlns:dc="http://purl.org/dc/elements/1.1/"
   xmlns:cc="http://creativecommons.org/ns#"
   xmlns:rdf="http://www.w3.org/1999/02/22-rdf-syntax-ns#"
   xmlns:svg="http://www.w3.org/2000/svg"
   xmlns="http://www.w3.org/2000/svg"
   xmlns:sodipodi="http://sodipodi.sourceforge.net/DTD/sodipodi-0.dtd"
   xmlns:inkscape="http://www.inkscape.org/namespaces/inkscape"
   viewBox="0 0 48 48"
   id="svg16839"
   version="1.1"
   inkscape:version="0.91 r13725"
   sodipodi:docname="default-folder-pictures.svg">
  <metadata
     id="metadata16880">
    <rdf:RDF>
      <cc:Work
         rdf:about="">
        <dc:format>image/svg+xml</dc:format>
        <dc:type
           rdf:resource="http://purl.org/dc/dcmitype/StillImage" />
      </cc:Work>
    </rdf:RDF>
  </metadata>
  <sodipodi:namedview
     pagecolor="#ffffff"
     bordercolor="#666666"
     borderopacity="1"
     objecttolerance="10"
     gridtolerance="10"
     guidetolerance="10"
     inkscape:pageopacity="0"
     inkscape:pageshadow="2"
     inkscape:window-width="1863"
     inkscape:window-height="1021"
     id="namedview16878"
     showgrid="false"
     inkscape:zoom="6.9532167"
     inkscape:cx="14.422523"
     inkscape:cy="8.353547"
     inkscape:window-x="57"
     inkscape:window-y="31"
     inkscape:window-maximized="1"
     inkscape:current-layer="svg16839" />
  <defs
     id="defs16841">
    <radialGradient
       id="radialGradient3850"
       cx="24.08"
       cy="41.38"
       r="21.08"
       gradientTransform="matrix(1,0,0,0.11307633,0,36.703704)"
       gradientUnits="userSpaceOnUse">
      <stop
         style="stop-color:#000;stop-opacity:0.392"
         id="stop16844" />
      <stop
         offset="1"
         style="stop-color:#000;stop-opacity:0"
         id="stop16846" />
    </radialGradient>
  </defs>
  <g
     transform="translate(0,-1004.3622)"
     id="g16852" />
  <path
     inkscape:connector-curvature="0"
     d="m 3.3496085,14.337487 0,28.000001 41.9999995,0 0,-14 -2,-12.000001 -16,0 -2,-4 -19.9999995,0 c -1,0 -2,1 -2,2 z"
     style="fill:#ececec;fill-opacity:1;stroke:none"
     id="path8315" />
  <rect
     width="21"
     height="8"
     x="6.3496084"
     y="17.337473"
     style="fill:#2ca7f8;fill-opacity:0.96534651;stroke:none"
     id="rect8317" />
  <path
     inkscape:connector-curvature="0"
     d="m 5.3496085,12.339687 c -1,0 -2,1 -2,2 l 0,1 c 0,-1 1,-2 2,-2 l 18.9999995,0 2,4.000001 17,0 2,12 0,-1 -2,-12.000001 -16,0 -2,-4 z"
     style="opacity:0.80400002;fill:#808080;fill-opacity:1;stroke:none"
     id="path8319" />
  <path
     inkscape:connector-curvature="0"
     d="m 45.349608,18.337488 0,28 -41.9999995,0 0,-26 19.9999995,0 2,-4.000001 18,0 c 1,0 2,1.000001 2,2.000001 z"
     style="fill:#f2f2f2;fill-opacity:1;stroke:none"
     id="path8321" />
  <path
     inkscape:connector-curvature="0"
     d="m 3.3496085,45.337488 0,1 41.9999995,0 0,-1 z"
     style="opacity:0.80100002;fill:#4d4d4d;fill-opacity:1;stroke:none"
     id="path8323" />
  <path
     inkscape:connector-curvature="0"
     d="m 25.349608,16.339687 -2,4.000001 -19.9999995,0 0,1 20.9999995,0 2,-4 17,0 c 1,0 2,1 2,2 l 0,-1 c 0,-1 -1,-2.000001 -2,-2.000001 z"
     style="opacity:0.80400002;fill:#808080;fill-opacity:1;stroke:none"
     id="path8325" />
  <rect
     style="opacity:0.80100002;fill:#2ca7f8;fill-opacity:0.55445545"
     id="rect8352"
     width="0.1732852"
     height="30.729242"
     x="3.2954569"
     y="14.563608" />
  <rect
     style="opacity:0.80100002;fill:#2ca7f8;fill-opacity:0.55445545"
     id="rect8352-6"
     width="0.1732852"
     height="26.916967"
     x="-45.31712"
     y="18.606758"
     transform="scale(-1,1)" />
  <rect
     style="opacity:0.80100002;fill:#2ca7f8;fill-opacity:1"
     id="rect8377"
     width="0.23104693"
     height="0.1732852"
     x="11.208814"
     y="18.491402" />
  <g
     transform="translate(39.964003,-1000.6848)"
     style="opacity:1;fill:#999999"
     id="g16866">
    <g
       transform="translate(-22.421265,1025.4767)"
       style="fill:#999999;fill-opacity:1"
       id="g16868">
      <g
         transform="translate(0,-1036.3622)"
         style="fill:#999999;fill-rule:evenodd"
         id="g16870">
        <path
           inkscape:connector-curvature="0"
           d="m 0.045,1046.8 c 0.229,-0.168 0.76,-0.668 1.63,-1.533 0.867,-0.87 2.027,-2.06 3.529,-3.624 0.983,1.398 1.706,2.406 2.241,3.069 0.522,0.655 0.812,0.942 0.882,0.862 0.555,-0.497 1.023,-0.92 1.426,-1.29 0.397,-0.37 0.705,-0.674 0.949,-0.922 1.221,1.536 2.235,2.801 3.123,3.87 0.873,1.061 1.566,1.864 2.103,2.455 l -3.324,-2.762 c -0.275,0.707 -0.723,1.072 -1.358,1.105 -0.653,0.019 -1.645,-0.773 -2.445,-0.92 -0.8,-0.146 -1.597,0.304 -2.308,0.061 -0.727,-0.257 -1.288,-1.273 -1.969,-1.536 -0.684,-0.26 -1.377,-0.26 -2.103,0 -0.791,0.387 -1.581,0.776 -2.375,1.166 z"
           id="path16872"
           style="fill:#999999" />
        <path
           inkscape:connector-curvature="0"
           d="m 0,1046.36 5,-5 3.282,3.678 2.218,-2.178 5.5,6.5 -3,2 -11,0 z"
           id="path16874"
           style="fill:#999999" />
      </g>
    </g>
    <path
       inkscape:connector-curvature="0"
       d="m -20.421,1025.48 c -1.108,0 -2,0.892 -2,2 l 0,12 c 0,1.108 0.892,2 2,2 l 12,0 c 1.108,0 2,-0.892 2,-2 l 0,-12 c 0,-1.108 -0.892,-2 -2,-2 l -12,0 z m 0,2 12,0 0,12 -12,0 0,-12 z"
       style="fill:#999999;fill-opacity:1"
       id="path16876" />
  </g>
</svg>
